<svg width="172" height="40" viewBox="0 0 172 40" fill="none" xmlns="http://www.w3.org/2000/svg">
<path d="M0 4C0 1.79086 1.79086 0 4 0H172V40H0V4Z" fill="url(#paint0_linear_3101_13318)"/>
<path d="M0 4C0 1.79086 1.79086 0 4 0H172V40H0V4Z" fill="url(#paint1_radial_3101_13318)"/>
<path d="M0 4C0 1.79086 1.79086 0 4 0H172V40H0V4Z" fill="url(#paint2_linear_3101_13318)" fill-opacity="0.1"/>
<path d="M8 14L13.25 15.5V26L8 24.5V14Z" fill="#3399FF"/>
<path d="M20 14L14.75 15.5V26L20 24.5V14Z" fill="#47EBEB"/>
<defs>
<linearGradient id="paint0_linear_3101_13318" x1="99.7234" y1="20.6452" x2="172" y2="20.6452" gradientUnits="userSpaceOnUse">
<stop stop-color="#1A9FFF" stop-opacity="0.3"/>
<stop offset="1" stop-color="#1A9FFF" stop-opacity="0"/>
</linearGradient>
<radialGradient id="paint1_radial_3101_13318" cx="0" cy="0" r="1" gradientUnits="userSpaceOnUse" gradientTransform="translate(-16.0106 -22.5) rotate(44.2448) scale(64.4952 305.039)">
<stop stop-color="#01D1FF" stop-opacity="0.41"/>
<stop offset="1" stop-color="#01FFFF" stop-opacity="0"/>
</radialGradient>
<linearGradient id="paint2_linear_3101_13318" x1="-6.5" y1="-7.89344e-06" x2="177" y2="29" gradientUnits="userSpaceOnUse">
<stop stop-color="#01FFFF"/>
<stop offset="1" stop-color="#01FFFF" stop-opacity="0"/>
</linearGradient>
</defs>
</svg>
