<svg width="219" height="38" viewBox="0 0 219 38" fill="none" xmlns="http://www.w3.org/2000/svg">
<path d="M0 4C0 1.79086 1.79086 0 4 0H219V38H0V4Z" fill="url(#paint0_linear_5325_49989)"/>
<path d="M0 4C0 1.79086 1.79086 0 4 0H219V38H0V4Z" fill="url(#paint1_radial_5325_49989)"/>
<path d="M0 4C0 1.79086 1.79086 0 4 0H219V38H0V4Z" fill="url(#paint2_linear_5325_49989)" fill-opacity="0.1"/>
<path d="M8 13L13.25 14.5V25L8 23.5V13Z" fill="#3399FF"/>
<path d="M20 13L14.75 14.5V25L20 23.5V13Z" fill="#47EBEB"/>
<defs>
<linearGradient id="paint0_linear_5325_49989" x1="126.973" y1="19.6129" x2="219" y2="19.6129" gradientUnits="userSpaceOnUse">
<stop stop-color="#1A9FFF" stop-opacity="0.3"/>
<stop offset="1" stop-color="#1A9FFF" stop-opacity="0"/>
</linearGradient>
<radialGradient id="paint1_radial_5325_49989" cx="0" cy="0" r="1" gradientUnits="userSpaceOnUse" gradientTransform="translate(-20.3856 -21.375) rotate(36.0061) scale(72.72 327.242)">
<stop stop-color="#01D1FF" stop-opacity="0.41"/>
<stop offset="1" stop-color="#01FFFF" stop-opacity="0"/>
</radialGradient>
<linearGradient id="paint2_linear_5325_49989" x1="-8.27616" y1="-7.49877e-06" x2="220.919" y2="48.5466" gradientUnits="userSpaceOnUse">
<stop stop-color="#01FFFF"/>
<stop offset="1" stop-color="#01FFFF" stop-opacity="0"/>
</linearGradient>
</defs>
</svg>
