{
    "asset" : {
        "generator" : "Khronos glTF Blender I/O v3.2.43",
        "version" : "2.0"
    },
    "scene" : 0,
    "scenes" : [
        {
            "name" : "Scene",
            "nodes" : [
                0
            ]
        }
    ],
    "nodes" : [
        {
            "mesh" : 0,
            "name" : "Car_Cube"
        }
    ],
    "materials" : [
        {
            "doubleSided" : true,
            "name" : "Body.002",
            "pbrMetallicRoughness" : {
                "roughnessFactor" : 0.8964735269546509
            }
        },
        {
            "doubleSided" : true,
            "name" : "Black.002",
            "pbrMetallicRoughness" : {
                "baseColorFactor" : [
                    0,
                    0,
                    0,
                    1
                ],
                "roughnessFactor" : 0.8964735269546509
            }
        },
        {
            "doubleSided" : true,
            "name" : "Window.002",
            "pbrMetallicRoughness" : {
                "baseColorFactor" : [
                    0,
                    0,
                    0,
                    1
                ],
                "roughnessFactor" : 0.8964735269546509
            }
        },
        {
            "doubleSided" : true,
            "name" : "Bumpers.002",
            "pbrMetallicRoughness" : {
                "baseColorFactor" : [
                    0.05858900025486946,
                    0.05858900025486946,
                    0.05858900025486946,
                    1
                ],
                "roughnessFactor" : 0.8964735269546509
            }
        },
        {
            "doubleSided" : true,
            "name" : "Lights.002",
            "pbrMetallicRoughness" : {
                "roughnessFactor" : 0.8964735269546509
            }
        },
        {
            "doubleSided" : true,
            "name" : "Bottom.002",
            "pbrMetallicRoughness" : {
                "baseColorFactor" : [
                    0,
                    0,
                    0,
                    1
                ],
                "roughnessFactor" : 0.8964735269546509
            }
        },
        {
            "doubleSided" : true,
            "name" : "Tires.002",
            "pbrMetallicRoughness" : {
                "baseColorFactor" : [
                    0,
                    0,
                    0,
                    1
                ],
                "roughnessFactor" : 0.8964735269546509
            }
        },
        {
            "doubleSided" : true,
            "name" : "Wheels.002",
            "pbrMetallicRoughness" : {
                "baseColorFactor" : [
                    0.492141991853714,
                    0.492141991853714,
                    0.492141991853714,
                    1
                ],
                "roughnessFactor" : 0.8964735269546509
            }
        }
    ],
    "meshes" : [
        {
            "name" : "Mesh.001",
            "primitives" : [
                {
                    "attributes" : {
                        "POSITION" : 0,
                        "NORMAL" : 1
                    },
                    "indices" : 2,
                    "material" : 0
                },
                {
                    "attributes" : {
                        "POSITION" : 3,
                        "NORMAL" : 4
                    },
                    "indices" : 5,
                    "material" : 1
                },
                {
                    "attributes" : {
                        "POSITION" : 6,
                        "NORMAL" : 7
                    },
                    "indices" : 8,
                    "material" : 2
                },
                {
                    "attributes" : {
                        "POSITION" : 9,
                        "NORMAL" : 10
                    },
                    "indices" : 11,
                    "material" : 3
                },
                {
                    "attributes" : {
                        "POSITION" : 12,
                        "NORMAL" : 13
                    },
                    "indices" : 14,
                    "material" : 4
                },
                {
                    "attributes" : {
                        "POSITION" : 15,
                        "NORMAL" : 16
                    },
                    "indices" : 17,
                    "material" : 5
                },
                {
                    "attributes" : {
                        "POSITION" : 18,
                        "NORMAL" : 19
                    },
                    "indices" : 20,
                    "material" : 6
                },
                {
                    "attributes" : {
                        "POSITION" : 21,
                        "NORMAL" : 22
                    },
                    "indices" : 23,
                    "material" : 7
                }
            ]
        }
    ],
    "accessors" : [
        {
            "bufferView" : 0,
            "componentType" : 5126,
            "count" : 280,
            "max" : [
                1.0074429512023926,
                1.5899970531463623,
                2.24019193649292
            ],
            "min" : [
                -0.9925569891929626,
                0.45208001136779785,
                -2.1748080253601074
            ],
            "type" : "VEC3"
        },
        {
            "bufferView" : 1,
            "componentType" : 5126,
            "count" : 280,
            "type" : "VEC3"
        },
        {
            "bufferView" : 2,
            "componentType" : 5123,
            "count" : 606,
            "type" : "SCALAR"
        },
        {
            "bufferView" : 3,
            "componentType" : 5126,
            "count" : 80,
            "max" : [
                0.9616619944572449,
                1.551496982574463,
                0.8227229714393616
            ],
            "min" : [
                -0.9467750191688538,
                1.013996958732605,
                -1.6285890340805054
            ],
            "type" : "VEC3"
        },
        {
            "bufferView" : 4,
            "componentType" : 5126,
            "count" : 80,
            "type" : "VEC3"
        },
        {
            "bufferView" : 5,
            "componentType" : 5123,
            "count" : 168,
            "type" : "SCALAR"
        },
        {
            "bufferView" : 6,
            "componentType" : 5126,
            "count" : 102,
            "max" : [
                0.9616619944572449,
                1.5380719900131226,
                0.8075029850006104
            ],
            "min" : [
                -0.9467750191688538,
                1.025622010231018,
                -1.6203060150146484
            ],
            "type" : "VEC3"
        },
        {
            "bufferView" : 7,
            "componentType" : 5126,
            "count" : 102,
            "type" : "VEC3"
        },
        {
            "bufferView" : 8,
            "componentType" : 5123,
            "count" : 186,
            "type" : "SCALAR"
        },
        {
            "bufferView" : 9,
            "componentType" : 5126,
            "count" : 158,
            "max" : [
                1.0574430227279663,
                0.7624970078468323,
                2.3901920318603516
            ],
            "min" : [
                -1.0425570011138916,
                0.2999970018863678,
                -2.274807929992676
            ],
            "type" : "VEC3"
        },
        {
            "bufferView" : 10,
            "componentType" : 5126,
            "count" : 158,
            "type" : "VEC3"
        },
        {
            "bufferView" : 11,
            "componentType" : 5123,
            "count" : 480,
            "type" : "SCALAR"
        },
        {
            "bufferView" : 12,
            "componentType" : 5126,
            "count" : 8,
            "max" : [
                0.9682509899139404,
                0.9317010045051575,
                2.187824010848999
            ],
            "min" : [
                -0.953354001045227,
                0.6798250079154968,
                2.06032395362854
            ],
            "type" : "VEC3"
        },
        {
            "bufferView" : 13,
            "componentType" : 5126,
            "count" : 8,
            "type" : "VEC3"
        },
        {
            "bufferView" : 14,
            "componentType" : 5123,
            "count" : 12,
            "type" : "SCALAR"
        },
        {
            "bufferView" : 15,
            "componentType" : 5126,
            "count" : 35,
            "max" : [
                0.9824429750442505,
                0.2999970018863678,
                2.225192070007324
            ],
            "min" : [
                -0.9675570130348206,
                0.2999970018863678,
                -2.1748080253601074
            ],
            "type" : "VEC3"
        },
        {
            "bufferView" : 16,
            "componentType" : 5126,
            "count" : 35,
            "type" : "VEC3"
        },
        {
            "bufferView" : 17,
            "componentType" : 5123,
            "count" : 144,
            "type" : "SCALAR"
        },
        {
            "bufferView" : 18,
            "componentType" : 5126,
            "count" : 1024,
            "max" : [
                0.9999430179595947,
                0.7999969720840454,
                1.6851919889450073
            ],
            "min" : [
                -0.98505699634552,
                -3.000000106112566e-06,
                -1.6748080253601074
            ],
            "type" : "VEC3"
        },
        {
            "bufferView" : 19,
            "componentType" : 5126,
            "count" : 1024,
            "type" : "VEC3"
        },
        {
            "bufferView" : 20,
            "componentType" : 5123,
            "count" : 5376,
            "type" : "SCALAR"
        },
        {
            "bufferView" : 21,
            "componentType" : 5126,
            "count" : 256,
            "max" : [
                0.9856929779052734,
                0.6564970016479492,
                1.5416920185089111
            ],
            "min" : [
                -0.9708070158958435,
                0.14349700510501862,
                -1.5313080549240112
            ],
            "type" : "VEC3"
        },
        {
            "bufferView" : 22,
            "componentType" : 5126,
            "count" : 256,
            "type" : "VEC3"
        },
        {
            "bufferView" : 23,
            "componentType" : 5123,
            "count" : 720,
            "type" : "SCALAR"
        }
    ],
    "bufferViews" : [
        {
            "buffer" : 0,
            "byteLength" : 3360,
            "byteOffset" : 0
        },
        {
            "buffer" : 0,
            "byteLength" : 3360,
            "byteOffset" : 3360
        },
        {
            "buffer" : 0,
            "byteLength" : 1212,
            "byteOffset" : 6720
        },
        {
            "buffer" : 0,
            "byteLength" : 960,
            "byteOffset" : 7932
        },
        {
            "buffer" : 0,
            "byteLength" : 960,
            "byteOffset" : 8892
        },
        {
            "buffer" : 0,
            "byteLength" : 336,
            "byteOffset" : 9852
        },
        {
            "buffer" : 0,
            "byteLength" : 1224,
            "byteOffset" : 10188
        },
        {
            "buffer" : 0,
            "byteLength" : 1224,
            "byteOffset" : 11412
        },
        {
            "buffer" : 0,
            "byteLength" : 372,
            "byteOffset" : 12636
        },
        {
            "buffer" : 0,
            "byteLength" : 1896,
            "byteOffset" : 13008
        },
        {
            "buffer" : 0,
            "byteLength" : 1896,
            "byteOffset" : 14904
        },
        {
            "buffer" : 0,
            "byteLength" : 960,
            "byteOffset" : 16800
        },
        {
            "buffer" : 0,
            "byteLength" : 96,
            "byteOffset" : 17760
        },
        {
            "buffer" : 0,
            "byteLength" : 96,
            "byteOffset" : 17856
        },
        {
            "buffer" : 0,
            "byteLength" : 24,
            "byteOffset" : 17952
        },
        {
            "buffer" : 0,
            "byteLength" : 420,
            "byteOffset" : 17976
        },
        {
            "buffer" : 0,
            "byteLength" : 420,
            "byteOffset" : 18396
        },
        {
            "buffer" : 0,
            "byteLength" : 288,
            "byteOffset" : 18816
        },
        {
            "buffer" : 0,
            "byteLength" : 12288,
            "byteOffset" : 19104
        },
        {
            "buffer" : 0,
            "byteLength" : 12288,
            "byteOffset" : 31392
        },
        {
            "buffer" : 0,
            "byteLength" : 10752,
            "byteOffset" : 43680
        },
        {
            "buffer" : 0,
            "byteLength" : 3072,
            "byteOffset" : 54432
        },
        {
            "buffer" : 0,
            "byteLength" : 3072,
            "byteOffset" : 57504
        },
        {
            "buffer" : 0,
            "byteLength" : 1440,
            "byteOffset" : 60576
        }
    ],
    "buffers" : [
        {
            "byteLength" : 62016,
            "uri" : "data:application/octet-stream;base64,"
        }
    ]
}
