{
  "accessors": [
    {
      "name": "Pointing_Arrow_Mesh_0_1_0_positions",
      "componentType": 5126,
      "count": 168,
      "min": [
        -2.078200101852417,
        0,
        -0.6758999824523926
      ],
      "max": [
        2.078200101852417,
        8.250399589538574,
        0.6758999824523926
      ],
      "type": "VEC3",
      "bufferView": 0,
      "byteOffset": 0
    },
    {
      "name": "Pointing_Arrow_Mesh_0_1_0_normals",
      "componentType": 5126,
      "count": 168,
      "min": [
        -0.9999309182167053,
        -0.9999585747718811,
        -0.9999621510505676
      ],
      "max": [
        0.9999309182167053,
        0.9998421669006348,
        0.9999621510505676
      ],
      "type": "VEC3",
      "bufferView": 1,
      "byteOffset": 0
    },
    {
      "name": "Pointing_Arrow_Mesh_0_1_0_texcoords",
      "componentType": 5126,
      "count": 168,
      "min": [
        0.024399999529123306,
        0.017000000923871994
      ],
      "max": [
        0.9775999784469604,
        0.9883000254631042
      ],
      "type": "VEC2",
      "bufferView": 2,
      "byteOffset": 0
    },
    {
      "name": "Pointing_Arrow_Mesh_0_1_0_indices",
      "componentType": 5123,
      "count": 624,
      "min": [
        0
      ],
      "max": [
        167
      ],
      "type": "SCALAR",
      "bufferView": 3,
      "byteOffset": 0
    }
  ],
  "asset": {
    "generator": "obj2gltf",
    "version": "2.0"
  },
  "buffers": [
    {
      "name": "point",
      "byteLength": 12484,
      "uri": "data:application/octet-stream;base64,"
    }
  ],
  "bufferViews": [
    {
      "name": "bufferView_0",
      "buffer": 0,
      "byteLength": 2016,
      "byteOffset": 0,
      "byteStride": 12,
      "target": 34962
    },
    {
      "name": "bufferView_1",
      "buffer": 0,
      "byteLength": 2016,
      "byteOffset": 2016,
      "byteStride": 12,
      "target": 34962
    },
    {
      "name": "bufferView_2",
      "buffer": 0,
      "byteLength": 1344,
      "byteOffset": 4032,
      "byteStride": 8,
      "target": 34962
    },
    {
      "name": "bufferView_3",
      "buffer": 0,
      "byteLength": 1248,
      "byteOffset": 5376,
      "target": 34963
    },
    {
      "buffer": 0,
      "byteOffset": 6624,
      "byteLength": 5860
    }
  ],
  "images": [
    {
      "name": "point",
      "mimeType": "image/png",
      "bufferView": 4
    }
  ],
  "materials": [
    {
      "name": "Material_0",
      "pbrMetallicRoughness": {
        "baseColorTexture": {
          "index": 0
        },
        "baseColorFactor": [
          1,
          1,
          1,
          1
        ],
        "metallicFactor": 0,
        "roughnessFactor": 0.775
      },
      "emissiveFactor": [
        0,
        0,
        0
      ],
      "alphaMode": "OPAQUE",
      "doubleSided": false
    }
  ],
  "meshes": [
    {
      "name": "Pointing_Arrow_Mesh_0_1",
      "primitives": [
        {
          "attributes": {
            "POSITION": 0,
            "NORMAL": 1,
            "TEXCOORD_0": 2
          },
          "indices": 3,
          "material": 0,
          "mode": 4
        }
      ]
    }
  ],
  "nodes": [
    {
      "name": "Pointing_Arrow_Mesh_0",
      "mesh": 0
    }
  ],
  "samplers": [
    {
      "wrapS": 10497,
      "wrapT": 10497
    }
  ],
  "scene": 0,
  "scenes": [
    {
      "nodes": [
        0
      ]
    }
  ],
  "textures": [
    {
      "name": "point",
      "sampler": 0,
      "source": 0
    }
  ]
}
