<?xml version="1.0" standalone="no"?><!DOCTYPE svg PUBLIC "-//W3C//DTD SVG 1.1//EN" "http://www.w3.org/Graphics/SVG/1.1/DTD/svg11.dtd"><svg class="icon" width="200px" height="200.00px" viewBox="0 0 1024 1024" version="1.1" xmlns="http://www.w3.org/2000/svg"><path fill="#fff" d="M944.44 329.333333A470.786667 470.786667 0 1 0 981.333333 512a467.68 467.68 0 0 0-36.893333-182.666667z m-51.473333-9.333333H512a191.853333 191.853333 0 0 0-68.906667 12.666667L582.533333 91.166667c135.88 22.693333 250.22 109.84 310.433334 228.833333zM661.333333 512c0 82.34-66.993333 149.333333-149.333333 149.333333S362.666667 594.34 362.666667 512s66.993333-149.333333 149.333333-149.333333 149.333333 66.993333 149.333333 149.333333zM512 85.333333q12.2 0 24.233333 0.666667L348.126667 411.84a189.926667 189.926667 0 0 0-25.82 70.273333L182.933333 240.7C261.253333 145.873333 379.686667 85.333333 512 85.333333zM155.28 278.146667l187.633333 324.98a192.666667 192.666667 0 0 0 33.333334 44.666666A197.5 197.5 0 0 0 391.333333 661.333333H112.306667a426.26 426.26 0 0 1 42.973333-383.186666zM131.033333 704H512a191.853333 191.853333 0 0 0 68.906667-12.666667L441.466667 932.833333c-135.88-22.693333-250.22-109.84-310.433334-228.833333zM512 938.666667q-12.2 0-24.233333-0.666667l188.106666-325.813333a189.92 189.92 0 0 0 25.82-70.28L841.066667 783.333333c-78.32 94.793333-196.753333 155.333333-329.066667 155.333334z m356.72-192.813334l-187.626667-324.973333a192.94 192.94 0 0 0-33.333333-44.666667A197.5 197.5 0 0 0 632.7 362.666667h278.993333a426.26 426.26 0 0 1-42.973333 383.186666z"  /></svg>