<?xml version="1.0" standalone="no"?><!DOCTYPE svg PUBLIC "-//W3C//DTD SVG 1.1//EN" "http://www.w3.org/Graphics/SVG/1.1/DTD/svg11.dtd"><svg class="icon" width="200px" height="200.00px" viewBox="0 0 1024 1024" version="1.1" xmlns="http://www.w3.org/2000/svg"><path fill="#ffffff" d="M512 64C264.58 64 64 264.58 64 512s200.58 448 448 448 448-200.58 448-448S759.42 64 512 64z m265.87 713.87a374.62 374.62 0 1 1 80.61-119.54 374.59 374.59 0 0 1-80.61 119.54zM696.93 500l-255-217a18.82 18.82 0 0 0-12.53-4.73c-9.47 0-18.41 6.58-18.41 16.66V729c0 10 8.94 16.66 18.41 16.66a18.43 18.43 0 0 0 12.48-4.66l255-217a15.62 15.62 0 0 0 0.05-24z" /></svg>