<svg width="16" height="16" viewBox="0 0 16 16" fill="none" xmlns="http://www.w3.org/2000/svg">
<g id="Frame 427321347">
<path id="Vector 931" d="M12 2.66667V3.33333H5.33333V12.6667H12V13.3333C12 13.7015 11.7015 14 11.3333 14H2.66667C2.29848 14 2 13.7015 2 13.3333V2.66667C2 2.29848 2.29848 2 2.66667 2H11.3333C11.7015 2 12 2.29848 12 2.66667Z" fill="white"/>
<path id="Vector 932" d="M6.6665 8.33337V7.66671C6.6665 7.29852 6.96498 7.00004 7.33317 7.00004H10.3332V5.84886C10.3332 5.26879 11.0227 4.96546 11.4503 5.35743L13.7971 7.5086C14.0853 7.77283 14.0853 8.22725 13.7971 8.49148L11.4503 10.6427C11.0227 11.0346 10.3332 10.7313 10.3332 10.1512V9.00004H7.33317C6.96498 9.00004 6.6665 8.70156 6.6665 8.33337Z" fill="white"/>
</g>
</svg>
