<svg width="16" height="16" viewBox="0 0 16 16" fill="none" xmlns="http://www.w3.org/2000/svg">
<g id="Frame 427321348">
<path id="Vector 931" d="M12 2.66667V3.33333H5.33333V12.6667H12V13.3333C12 13.7015 11.7015 14 11.3333 14H2.66667C2.29848 14 2 13.7015 2 13.3333V2.66667C2 2.29848 2.29848 2 2.66667 2H11.3333C11.7015 2 12 2.29848 12 2.66667Z" fill="white"/>
<path id="Vector 932" d="M14 8.33337V7.66671C14 7.29852 13.7015 7.00004 13.3333 7.00004H10.3333V5.84886C10.3333 5.26879 9.64378 4.96546 9.21618 5.35743L6.86945 7.5086C6.5812 7.77283 6.5812 8.22725 6.86945 8.49148L9.21618 10.6427C9.64378 11.0346 10.3333 10.7313 10.3333 10.1512V9.00004H13.3333C13.7015 9.00004 14 8.70156 14 8.33337Z" fill="white"/>
</g>
</svg>
