<svg width="16" height="16" viewBox="0 0 16 16" fill="none" xmlns="http://www.w3.org/2000/svg">
<g id="Frame 427321341">
<path id="Subtract" fill-rule="evenodd" clip-rule="evenodd" d="M4.80417 2.97996L3.33333 5.33329H2.33333C2.14924 5.33329 2 5.48253 2 5.66663C2 5.85072 2.14924 5.99996 2.33333 5.99996H3L2 7.66663V13C2 13.1841 2.14924 13.3333 2.33333 13.3333H5C5.1841 13.3333 5.33333 13.1841 5.33333 13V12.3333C5.33333 12.1492 5.48257 12 5.66667 12H7.47135C7.38144 11.6821 7.33333 11.3466 7.33333 11C7.33333 8.97492 8.97496 7.33329 11 7.33329C12.2401 7.33329 13.3364 7.94893 14 8.89124V7.66663L13 5.99996H13.6667C13.8508 5.99996 14 5.85072 14 5.66663C14 5.48253 13.8508 5.33329 13.6667 5.33329H12.6667L11.1958 2.97996C11.074 2.78504 10.8604 2.66663 10.6305 2.66663H5.3695C5.13964 2.66663 4.92599 2.78504 4.80417 2.97996Z" fill="#01FFFF"/>
<path id="Subtract_2" fill-rule="evenodd" clip-rule="evenodd" d="M11 14C12.6569 14 14 12.6569 14 11C14 9.34315 12.6569 8 11 8C9.34315 8 8 9.34315 8 11C8 12.6569 9.34315 14 11 14ZM11.3335 9.66671H10.6668V12.3334H11.3335V9.66671ZM9.3335 11H10.0002V12.3334H9.3335V11ZM12.6668 10.3334H12.0002V12.3334H12.6668V10.3334Z" fill="#01FFFF"/>
</g>
</svg>
