<svg width="40" height="40" viewBox="0 0 40 40" fill="none" xmlns="http://www.w3.org/2000/svg">
<g id="Frame 427321522" filter="url(#filter0_i_105_4128)">
<rect width="40" height="40" rx="20" fill="#00FFFF" fill-opacity="0.3"/>
<g id="Frame 427321362">
<path id="Vector" d="M18.686 21.8853C18.5639 21.8413 18.4535 21.7686 18.3636 21.673C18.2736 21.5774 18.2065 21.4616 18.1676 21.3346L17.7035 20.0961C17.555 19.8304 17.3485 19.604 17.1003 19.4348C16.8521 19.2655 16.569 19.158 16.2735 19.1208H13.1068C12.811 19.1576 12.5277 19.265 12.2793 19.4343C12.0309 19.6036 11.8243 19.8302 11.6759 20.0961L11.2209 21.3226C11.1828 21.4491 11.1166 21.5647 11.0277 21.6604C10.9388 21.7561 10.8295 21.8293 10.7084 21.8741C10.4777 21.9804 10.2855 22.1591 10.1595 22.3847C10.0334 22.6102 9.97995 22.8711 10.0067 23.1298V27.2297C10.0056 27.3298 10.0237 27.4292 10.06 27.5221C10.0962 27.615 10.1498 27.6996 10.2179 27.7711C10.2859 27.8427 10.367 27.8997 10.4564 27.939C10.5459 27.9782 10.642 27.999 10.7392 28H11.2651C11.3628 28 11.4595 27.9801 11.5496 27.9414C11.6398 27.9028 11.7216 27.8461 11.7904 27.7748C11.8592 27.7034 11.9136 27.6187 11.9504 27.5256C11.9873 27.4325 12.0059 27.3328 12.0051 27.2323V26.9913C12.0048 26.8764 12.0264 26.7626 12.0688 26.6563C12.1113 26.55 12.1736 26.4534 12.2523 26.3719C12.331 26.2904 12.4245 26.2257 12.5275 26.1814C12.6305 26.1371 12.741 26.1142 12.8526 26.1138H16.5335C16.6451 26.1142 16.7555 26.1371 16.8585 26.1814C16.9615 26.2257 17.0551 26.2904 17.1338 26.3719C17.2125 26.4534 17.2748 26.55 17.3172 26.6563C17.3596 26.7626 17.3813 26.8764 17.381 26.9913V27.186C17.381 27.6346 17.7326 27.9983 18.1676 28H18.6376C18.8346 27.9988 19.0232 27.9174 19.162 27.7736C19.3009 27.6297 19.3787 27.4351 19.3784 27.2323V23.1324C19.4063 22.876 19.3543 22.617 19.23 22.3929C19.1057 22.1688 18.9155 21.991 18.6868 21.8853L18.686 21.8853ZM13.631 20.2161H15.786C16.0548 20.2167 16.3165 20.3048 16.5337 20.4678C16.7509 20.6308 16.9125 20.8603 16.9951 21.1236L17.1543 21.5044C17.1683 21.5377 17.174 21.574 17.1709 21.6101C17.1678 21.6462 17.1561 21.681 17.1368 21.7112C17.1174 21.7415 17.0911 21.7664 17.0601 21.7836C17.0291 21.8008 16.9945 21.8098 16.9593 21.8098H12.4635C12.4282 21.8099 12.3936 21.8009 12.3626 21.7837C12.3316 21.7665 12.3053 21.7416 12.286 21.7113C12.2667 21.6809 12.2551 21.6461 12.2522 21.61C12.2493 21.5739 12.2551 21.5376 12.2693 21.5044L12.4168 21.1322C12.5835 20.585 13.0768 20.2136 13.6335 20.2161H13.631ZM12.7243 24.6008H11.2751C11.1627 24.5999 11.0551 24.5534 10.9758 24.4713C10.8966 24.3892 10.852 24.2783 10.8518 24.1625V24.0939C10.8517 24.0294 10.8655 23.9657 10.8922 23.9074C10.9189 23.849 10.9579 23.7975 11.0063 23.7565C11.0546 23.7155 11.1112 23.686 11.172 23.6702C11.2327 23.6544 11.2961 23.6526 11.3576 23.6651L12.616 23.9275C12.7122 23.9478 12.7987 24.0016 12.861 24.0799C12.9232 24.1582 12.9573 24.2561 12.9576 24.3572C12.9576 24.4214 12.933 24.483 12.8892 24.5286C12.8453 24.5742 12.7858 24.6002 12.7234 24.6008H12.7243ZM18.086 24.6008H16.6368C16.5746 24.6002 16.5152 24.5743 16.4714 24.5289C16.4275 24.4835 16.4028 24.4221 16.4026 24.3581C16.4025 24.2568 16.4364 24.1586 16.4987 24.0803C16.561 24.0019 16.6478 23.9482 16.7443 23.9284L18.0026 23.6651C18.0642 23.6525 18.1277 23.6541 18.1886 23.6699C18.2495 23.6857 18.3062 23.7153 18.3546 23.7564C18.403 23.7975 18.442 23.8492 18.4686 23.9078C18.4952 23.9663 18.5088 24.0302 18.5085 24.0948V24.1634C18.5085 24.279 18.4641 24.3898 18.3849 24.4718C18.3057 24.5538 18.1983 24.6002 18.086 24.6008ZM29.9927 23.1298C30.0204 22.8709 29.9687 22.6095 29.8448 22.3823C29.721 22.1551 29.5311 21.9735 29.3019 21.863C29.1802 21.8166 29.0703 21.7423 28.9806 21.6457C28.891 21.5491 28.8238 21.4327 28.7844 21.3055L28.3218 20.0935C28.1735 19.8278 27.967 19.6013 27.7188 19.432C27.4705 19.2627 27.1874 19.1553 26.8918 19.1183H23.7193C23.4237 19.1551 23.1404 19.2624 22.8922 19.4317C22.6439 19.601 22.4375 19.8276 22.2893 20.0935L21.8343 21.3217C21.7961 21.4484 21.7298 21.5642 21.6407 21.66C21.5517 21.7559 21.4422 21.8292 21.321 21.8741C21.0902 21.9806 20.8981 22.1595 20.7723 22.3852C20.6464 22.611 20.5931 22.8719 20.6202 23.1307V27.2306C20.6202 27.6518 20.9502 27.9949 21.3602 27.9974H21.8785C22.0752 27.9961 22.2634 27.9147 22.4021 27.771C22.5407 27.6274 22.6185 27.4331 22.6185 27.2306V26.9887C22.6181 26.757 22.707 26.5346 22.8657 26.3702C23.0244 26.2059 23.24 26.1131 23.4652 26.1122H27.1452C27.3705 26.1128 27.5863 26.2055 27.7452 26.3699C27.9041 26.5343 27.9931 26.7569 27.9927 26.9887V27.1834C27.991 27.6329 28.3427 27.9983 28.7794 28H29.2527C29.4496 27.9986 29.6379 27.9171 29.7766 27.7733C29.9152 27.6294 29.9929 27.435 29.9927 27.2323V23.1307V23.1298ZM24.2468 20.2161H26.4018C26.6708 20.2165 26.9327 20.3045 27.1501 20.4675C27.3675 20.6305 27.5291 20.8602 27.6118 21.1236L27.7702 21.5044C27.7841 21.5377 27.7898 21.574 27.7868 21.6101C27.7837 21.6462 27.772 21.6809 27.7526 21.7112C27.7333 21.7415 27.707 21.7664 27.676 21.7836C27.645 21.8008 27.6104 21.8098 27.5752 21.8098H23.0768C23.0416 21.8099 23.007 21.8009 22.976 21.7837C22.945 21.7665 22.9187 21.7416 22.8994 21.7112C22.8801 21.6809 22.8685 21.6461 22.8656 21.61C22.8626 21.5739 22.8685 21.5376 22.8827 21.5044L23.0302 21.1322C23.1108 20.8658 23.2723 20.633 23.491 20.4681C23.7097 20.3032 23.9741 20.2149 24.2452 20.2161H24.2468ZM23.3402 24.6008H21.8885C21.7759 24.6004 21.6681 24.554 21.5888 24.4718C21.5094 24.3896 21.4649 24.2784 21.4652 24.1625V24.0939C21.4651 24.0293 21.4789 23.9655 21.5057 23.9071C21.5324 23.8487 21.5714 23.7971 21.6199 23.7561C21.6684 23.7151 21.7251 23.6856 21.7859 23.6699C21.8468 23.6542 21.9103 23.6525 21.9718 23.6651L23.2302 23.9275C23.4277 23.9704 23.5702 24.1488 23.571 24.3572C23.571 24.4213 23.5465 24.4827 23.5029 24.5283C23.4592 24.5739 23.3999 24.5999 23.3377 24.6008H23.3402ZM28.7019 24.6008H27.2543C27.1919 24.6006 27.132 24.575 27.0878 24.5295C27.0437 24.484 27.0187 24.4224 27.0185 24.3581C27.0184 24.2568 27.0523 24.1586 27.1146 24.0803C27.1769 24.0019 27.2637 23.9482 27.3602 23.9284L28.6185 23.6651C28.6801 23.6526 28.7436 23.6544 28.8044 23.6703C28.8652 23.6861 28.9218 23.7157 28.9702 23.7568C29.0186 23.7979 29.0575 23.8495 29.0842 23.908C29.1108 23.9664 29.1245 24.0302 29.1244 24.0948V24.1634C29.1244 24.4044 28.9344 24.6008 28.6994 24.6008H28.7019ZM17.5268 17.0855H17.5368C17.4969 17.0788 17.4565 17.0753 17.416 17.0752L17.5268 17.0855ZM15.986 17.0752C16.0166 17.0819 16.0479 17.0854 16.0793 17.0855L15.986 17.0752ZM24.326 14.7524C24.205 14.7076 24.0957 14.6344 24.0067 14.5387C23.9178 14.443 23.8517 14.3274 23.8135 14.2009L23.3577 12.9744C23.056 12.4357 22.5243 12.0738 21.9243 12H17.9085C17.6128 12.0369 17.3295 12.1443 17.0812 12.3138C16.8329 12.4833 16.6266 12.71 16.4785 12.9761L16.0235 14.2026C15.9851 14.3291 15.9188 14.4448 15.8297 14.5405C15.7407 14.6361 15.6313 14.7093 15.5101 14.7542C15.2795 14.8608 15.0876 15.0397 14.9619 15.2654C14.8361 15.4912 14.783 15.752 14.8101 16.0107V16.6377C14.8101 16.8787 14.9985 17.0752 15.2326 17.0769H15.9851C15.8912 17.0544 15.8075 16.9999 15.7476 16.9221C15.6877 16.8444 15.6551 16.7481 15.6551 16.6489V16.5811C15.6551 16.5167 15.6689 16.4531 15.6956 16.3948C15.7222 16.3365 15.7611 16.2851 15.8093 16.2441C15.8576 16.2031 15.9141 16.1736 15.9747 16.1577C16.0354 16.1418 16.0987 16.14 16.1601 16.1522L17.4185 16.4147C17.6168 16.4567 17.7601 16.636 17.7601 16.8436C17.7606 16.9064 17.7373 16.967 17.6952 17.0125C17.653 17.058 17.5953 17.0847 17.5343 17.0872C17.8076 17.1352 18.0326 17.3359 18.1193 17.6069L18.1818 17.8128C18.2088 17.9009 18.2624 17.9779 18.3348 18.0327C18.4071 18.0874 18.4945 18.117 18.5843 18.1173H21.406C21.496 18.1176 21.5838 18.0882 21.6564 18.0334C21.729 17.9786 21.7826 17.9013 21.8093 17.8128L21.8727 17.6069C21.9143 17.4742 21.9903 17.3557 22.0925 17.2641C22.1947 17.1725 22.3192 17.1113 22.4527 17.0872H22.2835C22.2215 17.0872 22.162 17.0621 22.1179 17.0173C22.0738 16.9725 22.0485 16.9116 22.0477 16.8479C22.046 16.7457 22.0794 16.6463 22.1418 16.5669C22.2043 16.4876 22.2919 16.4334 22.3893 16.4138L23.6477 16.1514C23.7092 16.1388 23.7726 16.1405 23.8334 16.1562C23.8943 16.172 23.9509 16.2014 23.9993 16.2424C24.0477 16.2835 24.0867 16.3351 24.1133 16.3935C24.14 16.4519 24.1537 16.5157 24.1535 16.5803V16.6489C24.1534 16.7479 24.1207 16.8441 24.0608 16.9216C24.0009 16.9991 23.9173 17.0536 23.8235 17.076H24.596C24.7086 17.0751 24.8163 17.0284 24.8956 16.9462C24.9748 16.8639 25.0193 16.7527 25.0193 16.6369V16.0107C25.0477 15.7525 24.9959 15.4916 24.8711 15.2657C24.7464 15.0398 24.5552 14.8604 24.3252 14.7533L24.326 14.7524ZM22.6077 14.6932H17.266C17.2308 14.6935 17.1961 14.6846 17.1651 14.6675C17.1341 14.6504 17.1078 14.6256 17.0885 14.5953C17.0692 14.5651 17.0576 14.5303 17.0546 14.4942C17.0517 14.4582 17.0576 14.4219 17.0718 14.3888L17.2193 14.0165C17.2995 13.7496 17.4606 13.5161 17.6791 13.3503C17.8976 13.1845 18.162 13.0951 18.4335 13.0953H21.436C21.7048 13.0958 21.9666 13.1839 22.1838 13.3469C22.401 13.5099 22.5625 13.7395 22.6452 14.0028L22.8043 14.3845C22.818 14.4182 22.8234 14.4548 22.8201 14.4911C22.8168 14.5275 22.8048 14.5624 22.7853 14.5929C22.7658 14.6234 22.7393 14.6485 22.7082 14.666C22.6771 14.6835 22.6423 14.6928 22.6068 14.6932H22.6077ZM22.5818 17.0743C22.5402 17.0743 22.4985 17.0777 22.4568 17.0846L22.5818 17.0743ZM23.7368 17.0846C23.7682 17.0845 23.7995 17.0811 23.8302 17.0743L23.7368 17.0846Z" fill="#01FFFF"/>
</g>
<rect x="1" y="1" width="38" height="38" rx="19" stroke="#01FFFF" stroke-width="2"/>
</g>
<defs>
<filter id="filter0_i_105_4128" x="0" y="0" width="40" height="40" filterUnits="userSpaceOnUse" color-interpolation-filters="sRGB">
<feFlood flood-opacity="0" result="BackgroundImageFix"/>
<feBlend mode="normal" in="SourceGraphic" in2="BackgroundImageFix" result="shape"/>
<feColorMatrix in="SourceAlpha" type="matrix" values="0 0 0 0 0 0 0 0 0 0 0 0 0 0 0 0 0 0 127 0" result="hardAlpha"/>
<feOffset/>
<feGaussianBlur stdDeviation="2"/>
<feComposite in2="hardAlpha" operator="arithmetic" k2="-1" k3="1"/>
<feColorMatrix type="matrix" values="0 0 0 0 0.00392157 0 0 0 0 1 0 0 0 0 1 0 0 0 1 0"/>
<feBlend mode="normal" in2="shape" result="effect1_innerShadow_105_4128"/>
</filter>
</defs>
</svg>
