<svg width="28" height="28" viewBox="0 0 28 28" fill="none" xmlns="http://www.w3.org/2000/svg">
<g id="Frame 427321360" clip-path="url(#clip0_134_6202)">
<path id="Subtract" fill-rule="evenodd" clip-rule="evenodd" d="M12.9792 4.18098L2.70687 22.7689C2.27716 23.5465 2.83957 24.4999 3.72799 24.4999H24.2726C25.161 24.4999 25.7234 23.5465 25.2937 22.7689L15.0214 4.18098C14.5775 3.37782 13.423 3.37783 12.9792 4.18098ZM10.8467 18.2999H12.6467L11.7134 21.6999C11.6467 22.0999 12.1134 22.2999 12.3134 22.0332L17.1134 16.4332C17.3134 16.2332 17.1134 15.8999 16.8467 15.8999H14.9134L15.98 13.2999C16.0467 13.0999 15.9134 12.8332 15.6467 12.8332H12.6467C12.5134 12.8332 12.38 12.8999 12.3134 13.0332L10.5134 17.8332C10.4467 18.0332 10.6467 18.2999 10.8467 18.2999Z" fill="#01FFFF"/>
</g>
<defs>
<clipPath id="clip0_134_6202">
<rect width="28" height="28" fill="white" transform="matrix(-1 0 0 1 28 0)"/>
</clipPath>
</defs>
</svg>
