<svg width="16" height="16" viewBox="0 0 16 16" fill="none" xmlns="http://www.w3.org/2000/svg">
<g id="Frame 427321368">
<path id="Vector" d="M7.99967 4.63105C8.95848 4.63105 9.7375 3.89189 9.7375 2.98215C9.7375 2.07241 8.95848 1.33325 7.99967 1.33325C7.04087 1.33325 6.26185 2.07241 6.26185 2.98215C6.26185 3.89189 7.04087 4.63105 7.99967 4.63105ZM9.4229 5.68293H6.57645C5.88732 5.68293 5.33301 6.20887 5.33301 6.86275V10.2458C5.33301 10.8428 5.81241 11.3404 6.44162 11.4114L6.57645 11.4256V14.3112V14.6666H6.95099H9.04836H9.4229V14.3112V11.4114L9.55773 11.3972C10.1869 11.3261 10.6663 10.8286 10.6663 10.2316V6.84853C10.6663 6.20887 10.112 5.68293 9.4229 5.68293Z" fill="#01FFFF"/>
</g>
</svg>
