<svg width="40" height="40" viewBox="0 0 40 40" fill="none" xmlns="http://www.w3.org/2000/svg">
<g id="Frame 427321522" filter="url(#filter0_i_105_4844)">
<rect width="40" height="40" rx="20" fill="#00FFFF" fill-opacity="0.3"/>
<g id="Frame 427321364">
<path id="Vector" d="M23.4255 23.2166C23.3198 23.2166 23.2157 23.2036 23.1154 23.1759V27.2765C23.1848 27.3066 23.2589 27.324 23.3342 27.3281C23.7552 27.3281 24.0955 26.9295 24.0955 26.441V22.9958C24.017 23.0474 23.9393 23.1036 23.851 23.1366C23.7148 23.1884 23.5708 23.2155 23.4255 23.2166ZM27.5472 15.3231C27.457 15.0351 27.2793 14.7838 27.0397 14.6055C26.8002 14.4273 26.5113 14.3313 26.2148 14.3314H24.0374C23.639 14.3314 23.2866 14.5138 23.0263 14.7969C22.9788 14.8638 22.926 14.9277 22.8709 14.9892C22.8377 15.0408 22.8128 15.1 22.7879 15.1562C23.3923 15.3716 23.8789 15.8632 24.0856 16.5156L25.4965 20.9632C25.6069 21.3135 25.5925 21.6922 25.4558 22.0326V26.1356C25.4558 26.611 25.8315 26.9988 26.2978 26.9988C26.7611 26.9988 27.1391 26.6141 27.1391 26.1356V19.5453L27.379 20.2977C27.4466 20.5116 27.5947 20.6894 27.7908 20.7919C27.9869 20.8945 28.2149 20.9135 28.4247 20.8447C28.6351 20.7743 28.8094 20.6217 28.9096 20.4204C29.0097 20.219 29.0275 19.9854 28.9589 19.7707L27.548 15.3239L27.5472 15.3231ZM24.3324 13.559C24.5134 13.6229 24.7073 13.6644 24.9118 13.6644C25.1155 13.6644 25.3072 13.6229 25.4913 13.559C25.8463 13.4374 26.155 13.2054 26.374 12.8955C26.5929 12.5857 26.7112 12.2137 26.712 11.8318C26.712 11.346 26.5227 10.8801 26.1858 10.5365C25.849 10.193 25.392 10 24.9156 10C24.4391 10 23.9822 10.193 23.6453 10.5365C23.3084 10.8801 23.1191 11.346 23.1191 11.8318C23.119 12.2129 23.236 12.5844 23.4538 12.8941C23.6716 13.2038 23.9791 13.4361 24.3331 13.5582L24.3324 13.559ZM22.9713 16.6579C22.8812 16.3695 22.7037 16.1178 22.4642 15.939C22.2247 15.7602 21.9357 15.6636 21.6388 15.6632H19.4614C19.063 15.6632 18.7107 15.8455 18.4504 16.1286C18.4028 16.1948 18.35 16.2594 18.295 16.321C18.2618 16.3725 18.2369 16.4318 18.212 16.4879C18.8163 16.7033 19.303 17.195 19.5097 17.8474L20.9206 22.295C20.9832 22.495 21.0088 22.7035 20.9907 22.9089C20.9781 23.0653 20.9417 23.2187 20.8828 23.3636V27.4673C20.8828 27.9428 21.2578 28.3305 21.7241 28.3305C22.1881 28.3305 22.5661 27.9458 22.5661 27.4673V20.8794L22.8053 21.6318C22.8727 21.8458 23.0208 22.0237 23.2169 22.1265C23.413 22.2292 23.6411 22.2483 23.851 22.1796C24.0068 22.1277 24.144 22.0299 24.2454 21.8986C24.3467 21.7673 24.4077 21.6083 24.4206 21.4418C24.4303 21.3282 24.4175 21.2139 24.3829 21.1056L22.972 16.6579H22.9713ZM19.5021 24.5515C19.3965 24.5515 19.2924 24.5384 19.192 24.5099V28.6106C19.2615 28.6406 19.3355 28.658 19.4108 28.6621C19.8318 28.6621 20.1721 28.2636 20.1721 27.7758V24.3299C20.0937 24.3814 20.0159 24.4376 19.9277 24.4715C19.7919 24.523 19.6485 24.5507 19.5021 24.5507V24.5515ZM19.7564 14.89C19.9375 14.9538 20.1314 14.9954 20.3358 14.9954C20.5396 14.9954 20.7312 14.9538 20.9153 14.89C21.3196 14.7525 21.6625 14.4725 21.8826 14.1003C22.1026 13.7281 22.1853 13.2881 22.1157 12.8594C22.0462 12.4306 21.829 12.0412 21.5032 11.7611C21.1774 11.4809 20.7643 11.3284 20.3381 11.331C20.1022 11.331 19.8685 11.3784 19.6506 11.4705C19.4326 11.5626 19.2346 11.6976 19.0678 11.8678C18.9011 12.038 18.7688 12.24 18.6787 12.4624C18.5885 12.6847 18.5422 12.923 18.5424 13.1636C18.5419 13.5447 18.6589 13.9164 18.8767 14.2262C19.0945 14.536 19.4022 14.7681 19.7564 14.89ZM18.3749 18.3213C18.2815 18.0314 18.1006 17.7791 17.858 17.6004C17.6154 17.4217 17.3236 17.3259 17.0244 17.3265H14.8198C14.2026 17.3265 13.6609 17.725 13.4693 18.3213L12.041 22.772C12.007 22.8786 11.9939 22.991 12.0026 23.1028C12.0113 23.2146 12.0416 23.3235 12.0917 23.4233C12.1419 23.5232 12.2109 23.6119 12.2947 23.6844C12.3786 23.7569 12.4757 23.8118 12.5805 23.846C12.7917 23.9165 13.0217 23.8988 13.2201 23.7967C13.4185 23.6946 13.5692 23.5164 13.639 23.3013L13.8805 22.5489V29.1368C13.8805 29.6122 14.2607 30 14.7315 30C15.2031 30 15.5841 29.6146 15.5841 29.1368V23.9775H16.2563V29.1322C16.2563 29.6069 16.6366 29.9946 17.1081 29.9946C17.5789 29.9946 17.96 29.6099 17.96 29.1314V22.5435L18.2014 23.2967C18.2717 23.5114 18.4225 23.6892 18.6207 23.7912C18.819 23.8932 19.0487 23.9113 19.2599 23.8414C19.3648 23.8073 19.4619 23.7525 19.5459 23.6799C19.6298 23.6074 19.6988 23.5187 19.7489 23.4189C19.7991 23.319 19.8294 23.2101 19.838 23.0983C19.8467 22.9864 19.8336 22.874 19.7994 22.7673L18.3749 18.3213ZM15.1804 16.5564C15.3615 16.621 15.5562 16.6618 15.7599 16.6618C15.9636 16.6618 16.1552 16.621 16.3393 16.5564C16.6942 16.4348 17.0028 16.2029 17.2218 15.8932C17.4408 15.5836 17.5591 15.2117 17.5601 14.83C17.5601 14.3441 17.3708 13.8782 17.0339 13.5347C16.697 13.1911 16.2401 12.9982 15.7637 12.9982C15.2872 12.9982 14.8303 13.1911 14.4934 13.5347C14.1565 13.8782 13.9672 14.3441 13.9672 14.83C13.9671 15.2111 14.0841 15.5826 14.3019 15.8923C14.5197 16.202 14.8272 16.4342 15.1812 16.5564H15.1804Z" fill="#01FFFF"/>
</g>
<rect x="1" y="1" width="38" height="38" rx="19" stroke="#01FFFF" stroke-width="2"/>
</g>
<defs>
<filter id="filter0_i_105_4844" x="0" y="0" width="40" height="40" filterUnits="userSpaceOnUse" color-interpolation-filters="sRGB">
<feFlood flood-opacity="0" result="BackgroundImageFix"/>
<feBlend mode="normal" in="SourceGraphic" in2="BackgroundImageFix" result="shape"/>
<feColorMatrix in="SourceAlpha" type="matrix" values="0 0 0 0 0 0 0 0 0 0 0 0 0 0 0 0 0 0 127 0" result="hardAlpha"/>
<feOffset/>
<feGaussianBlur stdDeviation="2"/>
<feComposite in2="hardAlpha" operator="arithmetic" k2="-1" k3="1"/>
<feColorMatrix type="matrix" values="0 0 0 0 0.00392157 0 0 0 0 1 0 0 0 0 1 0 0 0 1 0"/>
<feBlend mode="normal" in2="shape" result="effect1_innerShadow_105_4844"/>
</filter>
</defs>
</svg>
