<svg width="16" height="16" viewBox="0 0 16 16" fill="none" xmlns="http://www.w3.org/2000/svg">
<g id="Frame 427321341">
<path id="Subtract" fill-rule="evenodd" clip-rule="evenodd" d="M4.80417 2.98008L3.33333 5.33341H2.33333C2.14924 5.33341 2 5.48265 2 5.66675C2 5.85084 2.14924 6.00008 2.33333 6.00008H3L2 7.66675V13.0001C2 13.1842 2.14924 13.3334 2.33333 13.3334H5C5.1841 13.3334 5.33333 13.1842 5.33333 13.0001V12.3334C5.33333 12.1493 5.48257 12.0001 5.66667 12.0001H7.47135C7.38144 11.6822 7.33333 11.3468 7.33333 11.0001C7.33333 8.97504 8.97496 7.33342 11 7.33342C12.2401 7.33342 13.3364 7.94905 14 8.89136V7.66675L13 6.00008H13.6667C13.8508 6.00008 14 5.85084 14 5.66675C14 5.48265 13.8508 5.33341 13.6667 5.33341H12.6667L11.1958 2.98008C11.074 2.78516 10.8604 2.66675 10.6305 2.66675H5.3695C5.13964 2.66675 4.92599 2.78516 4.80417 2.98008Z" fill="#01FFFF"/>
<path id="Subtract_2" fill-rule="evenodd" clip-rule="evenodd" d="M11 14C12.6569 14 14 12.6569 14 11C14 9.34315 12.6569 8 11 8C9.34315 8 8 9.34315 8 11C8 12.6569 9.34315 14 11 14ZM11.3335 9.66659H10.6668V12.3333H11.3335V9.66659ZM9.3335 10.9999H10.0002V12.3333H9.3335V10.9999ZM12.6668 10.3333H12.0002V12.3333H12.6668V10.3333Z" fill="#01FFFF"/>
</g>
</svg>
