<svg width="377" height="44" viewBox="0 0 377 44" fill="none" xmlns="http://www.w3.org/2000/svg">
<g id="Frame 427321686">
<path id="Union" d="M32.4999 0L1 43.5H376L344.5 0H32.4999Z" fill="url(#paint0_linear_139_7694)" fill-opacity="0.15"/>
<path id="Union_2" d="M1 43.5L0.595029 43.2067C0.484837 43.3589 0.469249 43.56 0.554676 43.7273C0.640102 43.8947 0.812122 44 1 44V43.5ZM376 43.5V44C376.188 44 376.36 43.8947 376.445 43.7273C376.531 43.56 376.515 43.3589 376.405 43.2067L376 43.5ZM1.40497 43.7933L32.905 0.293255L32.095 -0.293255L0.595029 43.2067L1.40497 43.7933ZM376.405 43.2067L344.905 -0.293255L344.095 0.293255L375.595 43.7933L376.405 43.2067ZM376 43H1V44H376V43Z" fill="url(#paint1_linear_139_7694)"/>
</g>
<defs>
<linearGradient id="paint0_linear_139_7694" x1="188.5" y1="0" x2="188.5" y2="44" gradientUnits="userSpaceOnUse">
<stop stop-color="#01FFFF" stop-opacity="0"/>
<stop offset="1" stop-color="#01FFFF"/>
</linearGradient>
<linearGradient id="paint1_linear_139_7694" x1="188.5" y1="0" x2="188.5" y2="44" gradientUnits="userSpaceOnUse">
<stop stop-color="#19D9E1" stop-opacity="0"/>
<stop offset="1" stop-color="#19D9E1"/>
</linearGradient>
</defs>
</svg>
