<svg width="16" height="16" viewBox="0 0 16 16" fill="none" xmlns="http://www.w3.org/2000/svg">
<g id="Frame 427321610">
<path id="Vector" d="M7.12415 9.25693C7.04279 9.2276 6.96919 9.17915 6.90921 9.11542C6.84922 9.0517 6.8045 8.97445 6.77859 8.88982L6.46915 8.06413C6.37016 7.88704 6.23249 7.73611 6.06702 7.62326C5.90155 7.51042 5.71284 7.43876 5.51581 7.41397H3.40467C3.2075 7.43851 3.0186 7.51005 2.85301 7.62292C2.68742 7.73578 2.54969 7.88686 2.45078 8.06413L2.14745 8.88182C2.12201 8.96613 2.07792 9.04322 2.01863 9.10702C1.95934 9.17082 1.88648 9.2196 1.80578 9.2495C1.65194 9.32035 1.52383 9.4395 1.4398 9.58987C1.35577 9.74025 1.32013 9.91414 1.33799 10.0866V12.8199C1.33726 12.8866 1.34931 12.9529 1.37346 13.0148C1.39761 13.0767 1.43339 13.1332 1.47874 13.1808C1.5241 13.2285 1.57814 13.2666 1.63778 13.2927C1.69742 13.3189 1.76149 13.3327 1.82633 13.3334H2.17689C2.242 13.3334 2.30648 13.3201 2.36658 13.2944C2.42669 13.2686 2.48125 13.2308 2.52711 13.1833C2.57298 13.1357 2.60923 13.0792 2.6338 13.0172C2.65836 12.9551 2.67074 12.8886 2.67023 12.8216V12.6609C2.67001 12.5844 2.68445 12.5085 2.71272 12.4376C2.741 12.3668 2.78255 12.3023 2.83502 12.248C2.88749 12.1937 2.94983 12.1505 3.0185 12.121C3.08717 12.0915 3.16081 12.0762 3.23523 12.076H5.68913C5.76355 12.0762 5.83719 12.0915 5.90586 12.121C5.97453 12.1505 6.03688 12.1937 6.08934 12.248C6.14181 12.3023 6.18336 12.3668 6.21164 12.4376C6.23991 12.5085 6.25436 12.5844 6.25414 12.6609V12.7907C6.25414 13.0898 6.48858 13.3323 6.77858 13.3334H7.09191C7.22325 13.3326 7.34895 13.2784 7.44151 13.1825C7.53407 13.0865 7.58595 12.9568 7.5858 12.8216V10.0884C7.60435 9.91739 7.5697 9.74476 7.48684 9.59534C7.40397 9.44592 7.27717 9.32744 7.12469 9.25694L7.12415 9.25693ZM3.75414 8.14418H5.19081C5.37002 8.14453 5.54452 8.20325 5.68932 8.31192C5.83412 8.4206 5.9418 8.57365 5.99692 8.74916L6.10304 9.00304C6.11234 9.02522 6.11614 9.04943 6.11409 9.07349C6.11205 9.09755 6.10424 9.12072 6.09135 9.1409C6.07846 9.16108 6.06089 9.17765 6.04024 9.18913C6.01959 9.2006 5.99649 9.20661 5.97303 9.20662H2.9758C2.95233 9.20666 2.92922 9.20067 2.90856 9.1892C2.88791 9.17773 2.87036 9.16113 2.8575 9.14092C2.84465 9.12071 2.8369 9.09751 2.83495 9.07344C2.833 9.04936 2.83692 9.02517 2.84635 9.00304L2.94468 8.75488C3.0558 8.39006 3.38468 8.14246 3.7558 8.14418H3.75414ZM3.14968 11.0673H2.18357C2.10861 11.0667 2.03691 11.0357 1.98406 10.981C1.93121 10.9262 1.90148 10.8523 1.90134 10.7751V10.7294C1.9013 10.6864 1.91051 10.6439 1.92832 10.605C1.94613 10.5661 1.97209 10.5317 2.00433 10.5044C2.03658 10.4771 2.07431 10.4574 2.11481 10.4469C2.15531 10.4363 2.19758 10.4352 2.23857 10.4435L3.07747 10.6184C3.14164 10.632 3.19932 10.6678 3.2408 10.72C3.28229 10.7722 3.30504 10.8375 3.30524 10.9049C3.30524 10.9477 3.28885 10.9887 3.25962 11.0191C3.23038 11.0496 3.19068 11.0669 3.14912 11.0673H3.14968ZM6.72415 11.0673H5.75803C5.71657 11.0669 5.67695 11.0496 5.64773 11.0193C5.61852 10.9891 5.60206 10.9482 5.60192 10.9055C5.6018 10.838 5.62444 10.7725 5.66598 10.7203C5.70752 10.668 5.76538 10.6322 5.82969 10.619L6.66859 10.4435C6.70964 10.4351 6.752 10.4362 6.79258 10.4467C6.83317 10.4572 6.87097 10.4769 6.90325 10.5043C6.93553 10.5318 6.96148 10.5662 6.97922 10.6052C6.99696 10.6443 7.00604 10.6869 7.00582 10.7299V10.7757C7.00582 10.8527 6.9762 10.9266 6.92342 10.9813C6.87065 11.0359 6.79901 11.0669 6.72415 11.0673ZM14.662 10.0866C14.6805 9.914 14.646 9.73973 14.5634 9.58827C14.4808 9.43681 14.3542 9.31575 14.2014 9.24207C14.1203 9.21113 14.047 9.16159 13.9873 9.09719C13.9275 9.03279 13.8827 8.95523 13.8564 8.87039L13.5481 8.06241C13.4491 7.88527 13.3115 7.73429 13.146 7.62143C12.9805 7.50858 12.7918 7.43696 12.5947 7.41226H10.4797C10.2826 7.43679 10.0938 7.50834 9.92829 7.62121C9.76278 7.73408 9.62516 7.88516 9.52638 8.06241L9.22304 8.88125C9.19755 8.96568 9.15337 9.04288 9.094 9.10678C9.03462 9.17068 8.96165 9.21953 8.88083 9.2495C8.72699 9.32048 8.59893 9.43975 8.515 9.59023C8.43107 9.74072 8.39557 9.91468 8.4136 10.0872V12.8205C8.4136 13.1013 8.6336 13.33 8.90693 13.3317H9.2525C9.38364 13.3308 9.50912 13.2765 9.60154 13.1808C9.69397 13.085 9.74584 12.9555 9.74583 12.8205V12.6592C9.74554 12.5048 9.80481 12.3565 9.91063 12.2469C10.0164 12.1373 10.1602 12.0755 10.3103 12.0749H12.7636C12.9138 12.0753 13.0577 12.1371 13.1636 12.2467C13.2696 12.3563 13.3289 12.5047 13.3286 12.6592V12.789C13.3275 13.0887 13.562 13.3323 13.8531 13.3334H14.1686C14.2999 13.3325 14.4254 13.2782 14.5179 13.1823C14.6103 13.0864 14.6621 12.9567 14.662 12.8216V10.0872V10.0866ZM10.8314 8.14418H12.2681C12.4474 8.14441 12.622 8.20307 12.7669 8.31175C12.9118 8.42044 13.0196 8.57355 13.0747 8.74916L13.1803 9.00304C13.1896 9.02522 13.1934 9.04943 13.1913 9.07349C13.1893 9.09755 13.1815 9.12071 13.1686 9.14089C13.1557 9.16108 13.1381 9.17765 13.1175 9.18912C13.0968 9.20059 13.0738 9.2066 13.0503 9.20662H10.0514C10.0279 9.20666 10.0048 9.20067 9.98415 9.18919C9.96349 9.17772 9.94595 9.16113 9.93309 9.14091C9.92024 9.1207 9.91249 9.09751 9.91054 9.07343C9.9086 9.04936 9.91251 9.02517 9.92194 9.00304L10.0203 8.75488C10.074 8.57727 10.1817 8.42209 10.3275 8.31216C10.4733 8.20223 10.6495 8.14335 10.8303 8.14418H10.8314ZM10.2269 11.0673H9.25916C9.18411 11.067 9.11225 11.0361 9.05933 10.9813C9.00642 10.9265 8.97679 10.8523 8.97694 10.7751V10.7294C8.97688 10.6863 8.9861 10.6438 9.00394 10.6048C9.02178 10.5659 9.04779 10.5315 9.0801 10.5042C9.11241 10.4768 9.15021 10.4572 9.19078 10.4467C9.23135 10.4362 9.27368 10.4351 9.31471 10.4435L10.1536 10.6184C10.2853 10.647 10.3803 10.766 10.3808 10.9049C10.3808 10.9476 10.3645 10.9886 10.3354 11.0189C10.3063 11.0493 10.2667 11.0667 10.2253 11.0673H10.2269ZM13.8014 11.0673H12.8364C12.7947 11.0672 12.7548 11.0501 12.7254 11.0197C12.6959 10.9894 12.6793 10.9483 12.6792 10.9055C12.6791 10.838 12.7017 10.7725 12.7432 10.7203C12.7848 10.668 12.8426 10.6322 12.907 10.619L13.7459 10.4435C13.7869 10.4352 13.8292 10.4364 13.8697 10.4469C13.9103 10.4575 13.948 10.4772 13.9803 10.5046C14.0126 10.532 14.0385 10.5664 14.0563 10.6054C14.074 10.6444 14.0832 10.6869 14.0831 10.7299V10.7757C14.0831 10.9364 13.9564 11.0673 13.7997 11.0673H13.8014ZM6.35136 6.05705H6.35803C6.3314 6.05259 6.30446 6.0503 6.27748 6.05019L6.35136 6.05705ZM5.32414 6.05019C5.34459 6.05471 5.36544 6.05701 5.38636 6.05705L5.32414 6.05019ZM10.8842 4.5017C10.8035 4.4718 10.7306 4.42303 10.6713 4.35923C10.612 4.29543 10.5679 4.21834 10.5425 4.13403L10.2386 3.31633C10.0375 2.95724 9.68305 2.71592 9.28304 2.66675H6.60582C6.40866 2.69134 6.21981 2.76298 6.0543 2.87595C5.88879 2.98892 5.7512 3.14011 5.65248 3.31748L5.34914 4.13517C5.32357 4.2195 5.27936 4.29659 5.21999 4.36038C5.16061 4.42418 5.08768 4.47294 5.00692 4.50286C4.85318 4.57392 4.72524 4.69323 4.64141 4.84371C4.55759 4.99418 4.52217 5.1681 4.54025 5.34056V5.75856C4.54025 5.91924 4.66581 6.05019 4.82192 6.05133H5.32358C5.26099 6.03635 5.20517 5.99998 5.16522 5.94817C5.12527 5.89636 5.10355 5.83215 5.10358 5.766V5.72082C5.10355 5.67788 5.11276 5.63547 5.13053 5.59662C5.14831 5.55777 5.17421 5.52346 5.20639 5.49613C5.23857 5.4688 5.27623 5.44914 5.31666 5.43855C5.35709 5.42797 5.3993 5.42672 5.44025 5.43491L6.27915 5.60988C6.41136 5.63791 6.50692 5.75741 6.50692 5.8958C6.50726 5.9377 6.49173 5.97809 6.46362 6.0084C6.43551 6.03872 6.39704 6.05658 6.35636 6.05819C6.53859 6.09022 6.68859 6.22401 6.74637 6.40471L6.78803 6.54195C6.80606 6.6007 6.84177 6.65203 6.89001 6.68853C6.93824 6.72502 6.9965 6.74478 7.05637 6.74495H8.9375C8.99752 6.74516 9.05602 6.72556 9.10442 6.68903C9.15281 6.65249 9.18855 6.60094 9.20638 6.54195L9.2486 6.40471C9.27634 6.31622 9.327 6.23719 9.39514 6.17613C9.46327 6.11507 9.5463 6.07429 9.63527 6.05819H9.5225C9.48118 6.0582 9.44152 6.04146 9.4121 6.01161C9.38268 5.98175 9.36586 5.94118 9.36527 5.89866C9.36418 5.83057 9.3864 5.76427 9.42805 5.71136C9.4697 5.65846 9.52811 5.62233 9.59305 5.60931L10.4319 5.43434C10.4729 5.42596 10.5153 5.42705 10.5558 5.43755C10.5963 5.44805 10.6341 5.46769 10.6664 5.49505C10.6987 5.5224 10.7246 5.5568 10.7424 5.59575C10.7602 5.63469 10.7693 5.67722 10.7692 5.72025V5.76599C10.7691 5.83204 10.7473 5.89612 10.7074 5.94782C10.6674 5.99951 10.6117 6.03579 10.5492 6.05075H11.0642C11.1392 6.05015 11.211 6.01904 11.2639 5.9642C11.3167 5.90936 11.3464 5.83524 11.3464 5.75799V5.34056C11.3653 5.16841 11.3307 4.99451 11.2476 4.84388C11.1644 4.69325 11.037 4.57365 10.8836 4.50228L10.8842 4.5017ZM9.73861 4.46225H6.17748C6.15403 4.46239 6.13093 4.45649 6.11026 4.44509C6.08959 4.43368 6.07203 4.41714 6.05916 4.39697C6.04629 4.37679 6.03853 4.35362 6.03659 4.32957C6.03464 4.30552 6.03858 4.28135 6.04803 4.25926L6.14636 4.01108C6.1998 3.83312 6.30724 3.67746 6.45291 3.56693C6.59859 3.45641 6.77484 3.39684 6.95582 3.39695H8.9575C9.1367 3.39731 9.31121 3.45603 9.45601 3.5647C9.60081 3.67338 9.70848 3.82643 9.76361 4.00194L9.86973 4.25639C9.87882 4.27885 9.88242 4.30327 9.88021 4.3275C9.878 4.35172 9.87004 4.37502 9.85704 4.39534C9.84404 4.41567 9.82639 4.4324 9.80565 4.44406C9.7849 4.45573 9.76169 4.46197 9.73805 4.46225H9.73861ZM9.72138 6.04961C9.69361 6.04961 9.66583 6.05189 9.63805 6.05648L9.72138 6.04961ZM10.4914 6.05648C10.5123 6.05642 10.5332 6.05412 10.5536 6.04961L10.4914 6.05648Z" fill="#01FFFF"/>
</g>
</svg>
