<svg width="16" height="16" viewBox="0 0 16 16" fill="none" xmlns="http://www.w3.org/2000/svg">
<g id="Frame 427321352">
<path id="Subtract" fill-rule="evenodd" clip-rule="evenodd" d="M4.80417 2.98008L3.33333 5.33341H2.33333C2.14924 5.33341 2 5.48265 2 5.66675C2 5.85084 2.14924 6.00008 2.33333 6.00008H3L2 7.66675V13.0001C2 13.1842 2.14924 13.3334 2.33333 13.3334H5C5.1841 13.3334 5.33333 13.1842 5.33333 13.0001V12.3334C5.33333 12.1493 5.48257 12.0001 5.66667 12.0001H7.47135C7.38144 11.6822 7.33333 11.3468 7.33333 11.0001C7.33333 8.97504 8.97496 7.33342 11 7.33342C12.2401 7.33342 13.3364 7.94905 14 8.89136V7.66675L13 6.00008H13.6667C13.8508 6.00008 14 5.85084 14 5.66675C14 5.48265 13.8508 5.33341 13.6667 5.33341H12.6667L11.1958 2.98008C11.074 2.78516 10.8604 2.66675 10.6305 2.66675H5.3695C5.13964 2.66675 4.92599 2.78516 4.80417 2.98008Z" fill="#01FFFF"/>
<path id="Subtract_2" fill-rule="evenodd" clip-rule="evenodd" d="M11 14C12.6569 14 14 12.6569 14 11C14 9.34315 12.6569 8 11 8C9.34315 8 8 9.34315 8 11C8 12.6569 9.34315 14 11 14ZM12.6667 10.0002C12.6667 10.3286 12.4292 10.6015 12.1167 10.6567L12.0357 11.7095C12.211 11.7872 12.3333 11.9627 12.3333 12.1668C12.3333 12.443 12.1095 12.6668 11.8333 12.6668C11.5602 12.6668 11.3382 12.4478 11.3334 12.1759L10.2279 11.8074C10.1364 11.9247 9.99366 12.0002 9.83333 12.0002C9.55719 12.0002 9.33333 11.7763 9.33333 11.5002C9.33333 11.224 9.55719 11.0002 9.83333 11.0002C9.94266 11.0002 10.0438 11.0353 10.1261 11.0948L11.3743 10.2307C11.3478 10.1588 11.3333 10.0812 11.3333 10.0002C11.3333 9.63197 11.6318 9.3335 12 9.3335C12.3682 9.3335 12.6667 9.63197 12.6667 10.0002ZM11.7033 11.6839L11.7843 10.6312C11.7026 10.6032 11.6281 10.5599 11.5641 10.5046L10.3159 11.3688C10.3265 11.4079 10.3325 11.4489 10.3333 11.4911L11.4388 11.8596C11.5046 11.7752 11.597 11.7125 11.7033 11.6839Z" fill="#01FFFF"/>
</g>
</svg>
