<svg width="28" height="28" viewBox="0 0 28 28" fill="none" xmlns="http://www.w3.org/2000/svg">
<g id="Frame 427321358" clip-path="url(#clip0_134_6195)">
<path id="Subtract" fill-rule="evenodd" clip-rule="evenodd" d="M4.66666 3.5C4.02233 3.5 3.5 4.02234 3.5 4.66667V8.16667C3.5 8.811 4.02233 9.33333 4.66666 9.33333H23.3333C23.9777 9.33333 24.5 8.811 24.5 8.16667V4.66667C24.5 4.02233 23.9777 3.5 23.3333 3.5H4.66666ZM17.2083 5.54167C16.7251 5.54167 16.3333 5.93342 16.3333 6.41667C16.3333 6.89992 16.7251 7.29167 17.2083 7.29167H21.2917C21.7749 7.29167 22.1667 6.89992 22.1667 6.41667C22.1667 5.93342 21.7749 5.54167 21.2917 5.54167H17.2083Z" fill="#01FFFF"/>
<path id="Subtract_2" fill-rule="evenodd" clip-rule="evenodd" d="M4.66666 11.0833C4.02233 11.0833 3.5 11.6057 3.5 12.25V15.75C3.5 16.3943 4.02233 16.9167 4.66666 16.9167H23.3333C23.9777 16.9167 24.5 16.3943 24.5 15.75V12.25C24.5 11.6057 23.9777 11.0833 23.3333 11.0833H4.66666ZM17.2083 13.125C16.7251 13.125 16.3333 13.5168 16.3333 14C16.3333 14.4833 16.7251 14.875 17.2083 14.875H21.2917C21.7749 14.875 22.1667 14.4833 22.1667 14C22.1667 13.5168 21.7749 13.125 21.2917 13.125H17.2083Z" fill="#01FFFF"/>
<path id="Subtract_3" fill-rule="evenodd" clip-rule="evenodd" d="M4.66666 18.6667C4.02233 18.6667 3.5 19.189 3.5 19.8333V23.3333C3.5 23.9777 4.02233 24.5 4.66666 24.5H23.3333C23.9777 24.5 24.5 23.9777 24.5 23.3333V19.8333C24.5 19.189 23.9777 18.6667 23.3333 18.6667H4.66666ZM17.2083 20.7083C16.7251 20.7083 16.3333 21.1001 16.3333 21.5833C16.3333 22.0666 16.7251 22.4583 17.2083 22.4583H21.2917C21.7749 22.4583 22.1667 22.0666 22.1667 21.5833C22.1667 21.1001 21.7749 20.7083 21.2917 20.7083H17.2083Z" fill="#01FFFF"/>
</g>
<defs>
<clipPath id="clip0_134_6195">
<rect width="28" height="28" fill="white" transform="matrix(-1 0 0 1 28 0)"/>
</clipPath>
</defs>
</svg>
