<svg width="16" height="16" viewBox="0 0 16 16" fill="none" xmlns="http://www.w3.org/2000/svg">
<g id="Frame 427321369">
<path id="Vector" d="M8.00365 4.6381C9.01001 4.6381 9.83058 3.89735 9.83058 2.98567C9.83058 2.07399 9.01001 1.33325 8.00365 1.33325C6.9973 1.33325 6.17673 2.07399 6.17673 2.98567C6.17673 3.89735 6.9973 4.6381 8.00365 4.6381ZM11.2704 10.3646L10.5273 8.45576L9.50545 5.80619C9.47448 5.73496 9.39707 5.69223 9.31966 5.69223H6.70313C6.62572 5.69223 6.54831 5.73496 6.51734 5.80619L5.80515 7.62955L4.73687 10.3646C4.62849 10.6495 4.64397 10.9201 4.7988 11.1196C4.95362 11.319 5.21682 11.4187 5.55744 11.4187H6.53283V14.6666H6.91989H9.07194H9.459V14.3105V11.4187H10.4189C10.7595 11.4187 11.0227 11.3048 11.1775 11.1196C11.3479 10.9201 11.3788 10.6495 11.2704 10.3646Z" fill="#01FFFF"/>
</g>
</svg>
