<svg width="16" height="16" viewBox="0 0 16 16" fill="none" xmlns="http://www.w3.org/2000/svg">
<g id="Frame 427321364">
<path id="Vector" d="M10.284 10.1444C10.2136 10.1444 10.1441 10.1356 10.0772 10.1172V12.8509C10.1235 12.871 10.1729 12.8826 10.2231 12.8853C10.5038 12.8853 10.7306 12.6196 10.7306 12.2939V9.99715C10.6783 10.0315 10.6265 10.069 10.5677 10.091C10.4769 10.1255 10.3809 10.1436 10.284 10.1444ZM13.0318 4.882C12.9716 4.68999 12.8532 4.52246 12.6935 4.40361C12.5338 4.28477 12.3412 4.22078 12.1435 4.22088H10.6919C10.4263 4.22088 10.1914 4.34243 10.0179 4.53118C9.9862 4.5758 9.95099 4.61837 9.91427 4.6594C9.89214 4.69377 9.87554 4.73326 9.85894 4.7707C10.2618 4.91432 10.5863 5.24206 10.7241 5.677L11.6647 8.64207C11.7383 8.87556 11.7286 9.12803 11.6375 9.355V12.0903C11.6375 12.4073 11.888 12.6658 12.1989 12.6658C12.5077 12.6658 12.7597 12.4093 12.7597 12.0903V7.6968L12.9196 8.19841C12.9647 8.341 13.0635 8.4595 13.1942 8.52788C13.3249 8.59626 13.4769 8.60892 13.6168 8.56308C13.757 8.51615 13.8733 8.41441 13.9401 8.28017C14.0068 8.14594 14.0186 7.99018 13.9729 7.84707L13.0323 4.88252L13.0318 4.882ZM10.8886 3.70592C11.0093 3.7485 11.1386 3.77619 11.2749 3.77619C11.4107 3.77619 11.5384 3.7485 11.6612 3.70592C11.8978 3.62485 12.1036 3.47016 12.2496 3.26362C12.3956 3.05707 12.4744 2.80906 12.475 2.55447C12.475 2.23058 12.3488 1.91996 12.1242 1.69094C11.8996 1.46192 11.595 1.33325 11.2774 1.33325C10.9597 1.33325 10.6551 1.46192 10.4305 1.69094C10.2059 1.91996 10.0798 2.23058 10.0798 2.55447C10.0797 2.80852 10.1577 3.05621 10.3029 3.26267C10.4481 3.46914 10.6531 3.62398 10.8891 3.70541L10.8886 3.70592ZM9.98117 5.77188C9.92115 5.57961 9.80276 5.41177 9.6431 5.29257C9.48344 5.17337 9.29077 5.10898 9.09289 5.1087H7.64125C7.37568 5.1087 7.14078 5.23026 6.96725 5.41901C6.93556 5.46312 6.90035 5.5062 6.86363 5.54723C6.8415 5.5816 6.8249 5.62109 6.8083 5.65853C7.2112 5.80214 7.53563 6.12989 7.67345 6.56483L8.61404 9.5299C8.65579 9.66325 8.67289 9.80225 8.66082 9.93919C8.6524 10.0434 8.62814 10.1457 8.58889 10.2423V12.9781C8.58889 13.2951 8.83888 13.5536 9.14973 13.5536C9.45907 13.5536 9.71106 13.2971 9.71106 12.9781V8.58616L9.87051 9.08778C9.91549 9.23046 10.0142 9.34908 10.1449 9.41756C10.2757 9.48604 10.4277 9.49878 10.5677 9.45296C10.6715 9.41837 10.763 9.3532 10.8306 9.26566C10.8982 9.17813 10.9388 9.07215 10.9474 8.96109C10.9539 8.88542 10.9453 8.80919 10.9223 8.73696L9.98167 5.77188H9.98117ZM7.66842 11.0342C7.598 11.0342 7.52858 11.0255 7.46169 11.0065V13.7403C7.50797 13.7603 7.55734 13.772 7.60755 13.7747C7.88822 13.7747 8.11507 13.509 8.11507 13.1838V10.8865C8.06276 10.9209 8.01095 10.9583 7.9521 10.9809C7.86156 11.0153 7.766 11.0337 7.66842 11.0337V11.0342ZM7.83792 4.59324C7.95864 4.63581 8.08791 4.66351 8.22422 4.66351C8.36003 4.66351 8.48779 4.63581 8.61052 4.59324C8.88004 4.50157 9.10868 4.31492 9.25537 4.06679C9.40205 3.81867 9.45717 3.52535 9.41081 3.23951C9.36445 2.95367 9.21967 2.69406 9.00246 2.5073C8.78525 2.32054 8.50985 2.21887 8.22573 2.22057C8.06844 2.22057 7.91269 2.25218 7.76738 2.31359C7.62207 2.375 7.49006 2.465 7.37888 2.57847C7.26771 2.69193 7.17955 2.82662 7.11945 2.97484C7.05935 3.12306 7.02848 3.2819 7.02861 3.44229C7.02829 3.6964 7.10623 3.9442 7.25144 4.15071C7.39665 4.35722 7.6018 4.51201 7.83792 4.59324ZM6.91695 6.88077C6.85466 6.68752 6.73403 6.51931 6.57231 6.40019C6.4106 6.28108 6.21608 6.21716 6.01659 6.21759H4.54685C4.13541 6.21759 3.77426 6.48328 3.6465 6.88077L2.69434 9.8479C2.67163 9.91898 2.66293 9.99394 2.66874 10.0685C2.67454 10.143 2.69474 10.2156 2.72816 10.2821C2.76158 10.3487 2.80757 10.4078 2.86349 10.4562C2.9194 10.5045 2.98414 10.5411 3.05397 10.5639C3.19478 10.6109 3.34813 10.5991 3.48041 10.531C3.61269 10.463 3.71311 10.3442 3.75967 10.2008L3.92063 9.69915V14.0911C3.92063 14.4081 4.17414 14.6666 4.488 14.6666C4.80237 14.6666 5.05638 14.4096 5.05638 14.0911V10.6516H5.50455V14.088C5.50455 14.4045 5.75805 14.663 6.07242 14.663C6.38629 14.663 6.6403 14.4065 6.6403 14.0875V9.69556L6.80126 10.1977C6.84815 10.3409 6.94863 10.4594 7.0808 10.5274C7.21297 10.5954 7.36614 10.6074 7.50696 10.5608C7.57683 10.5381 7.64161 10.5016 7.69756 10.4532C7.75351 10.4049 7.79953 10.3457 7.83296 10.2792C7.86639 10.2126 7.88657 10.14 7.89234 10.0654C7.89812 9.99087 7.88937 9.9159 7.86659 9.84482L6.91695 6.88077ZM4.78728 5.70418C4.908 5.74726 5.03777 5.77445 5.17358 5.77445C5.30939 5.77445 5.43715 5.74726 5.55988 5.70418C5.79648 5.62313 6.00222 5.46852 6.1482 5.26208C6.29417 5.05564 6.37304 4.80774 6.37372 4.55323C6.37372 4.22935 6.24754 3.91873 6.02294 3.68971C5.79834 3.46068 5.49372 3.33202 5.17609 3.33202C4.85847 3.33202 4.55385 3.46068 4.32925 3.68971C4.10465 3.91873 3.97847 4.22935 3.97847 4.55323C3.97837 4.80729 4.05641 5.05498 4.20159 5.26144C4.34677 5.46791 4.55178 5.62275 4.78779 5.70418H4.78728Z" fill="#01FFFF"/>
</g>
</svg>
