<svg width="16" height="16" viewBox="0 0 16 16" fill="none" xmlns="http://www.w3.org/2000/svg">
<g id="Frame 427321342">
<path id="Subtract" fill-rule="evenodd" clip-rule="evenodd" d="M4.80417 2.98008L3.33333 5.33341H2.33333C2.14924 5.33341 2 5.48265 2 5.66675C2 5.85084 2.14924 6.00008 2.33333 6.00008H3L2 7.66675V13.0001C2 13.1842 2.14924 13.3334 2.33333 13.3334H5C5.1841 13.3334 5.33333 13.1842 5.33333 13.0001V12.3334C5.33333 12.1493 5.48257 12.0001 5.66667 12.0001H7.47135C7.38144 11.6822 7.33333 11.3468 7.33333 11.0001C7.33333 8.97504 8.97496 7.33342 11 7.33342C12.2401 7.33342 13.3364 7.94905 14 8.89136V7.66675L13 6.00008H13.6667C13.8508 6.00008 14 5.85084 14 5.66675C14 5.48265 13.8508 5.33341 13.6667 5.33341H12.6667L11.1958 2.98008C11.074 2.78516 10.8604 2.66675 10.6305 2.66675H5.3695C5.13964 2.66675 4.92599 2.78516 4.80417 2.98008Z" fill="#01FFFF"/>
<path id="Subtract_2" fill-rule="evenodd" clip-rule="evenodd" d="M11 14C12.6569 14 14 12.6569 14 11C14 9.34315 12.6569 8 11 8C9.34315 8 8 9.34315 8 11C8 12.6569 9.34315 14 11 14ZM10.4783 9.44046C10.4149 9.2925 10.1569 9.29733 10.1083 9.45796L9.5475 11.3058H8.66667V11.6391L9.71997 11.6381C9.75902 11.6343 9.7958 11.6204 9.82548 11.5984C9.85516 11.5763 9.87634 11.547 9.88622 11.5145L10.2899 10.1838L10.9638 12.559C11.0259 12.705 11.2781 12.7038 11.3321 12.5474L11.8299 11.1054L12.1058 11.5659C12.1236 11.5885 12.1476 11.6069 12.1757 11.6197C12.2038 11.6324 12.235 11.6391 12.2668 11.6391H13.3333V11.3058H12.3858L11.9433 10.5645C11.8546 10.4497 11.6428 10.4725 11.5954 10.6103L11.1643 11.8587L10.4783 9.44046Z" fill="#01FFFF"/>
</g>
</svg>
