<svg width="44" height="44" viewBox="0 0 44 44" fill="none" xmlns="http://www.w3.org/2000/svg">
<g id="Frame 427321335">
<path id="Ellipse 2222" d="M35.75 20.1667C35.75 12.5728 29.5939 6.41675 22 6.41675C14.4061 6.41675 8.25 12.5728 8.25 20.1667" stroke="white" stroke-width="1.83333"/>
<path id="Ellipse 2223" d="M30.25 20.1667C30.25 15.6104 26.5563 11.9167 22 11.9167C17.4437 11.9167 13.75 15.6104 13.75 20.1667" stroke="white" stroke-width="1.83333"/>
<path id="Vector 928" d="M22 18.3333V23.8333" stroke="white" stroke-width="1.83333" stroke-linejoin="round"/>
<path id="Rectangle 955479" d="M6.4165 22.9167H37.5832V28.4167H6.4165V22.9167Z" stroke="white" stroke-width="1.83333"/>
<path id="Rectangle 955480" d="M6.4165 32.0833H37.5832V37.5833H6.4165V32.0833Z" stroke="white" stroke-width="1.83333"/>
<rect id="Rectangle 955481" x="9.1665" y="29.3333" width="1.83333" height="1.83333" fill="white"/>
<rect id="Rectangle 955483" x="9.1665" y="24.75" width="1.83333" height="1.83333" fill="white"/>
<rect id="Rectangle 955487" x="9.1665" y="33.9167" width="1.83333" height="1.83333" fill="white"/>
<rect id="Rectangle 955484" x="12.8335" y="24.75" width="1.83333" height="1.83333" fill="white"/>
<rect id="Rectangle 955488" x="12.8335" y="33.9167" width="1.83333" height="1.83333" fill="white"/>
<rect id="Rectangle 955485" x="16.5" y="24.75" width="1.83333" height="1.83333" fill="white"/>
<rect id="Rectangle 955489" x="16.5" y="33.9167" width="1.83333" height="1.83333" fill="white"/>
<rect id="Rectangle 955486" x="33" y="24.75" width="1.83333" height="1.83333" fill="white"/>
<rect id="Rectangle 955490" x="33" y="33.9167" width="1.83333" height="1.83333" fill="white"/>
<rect id="Rectangle 955482" x="33" y="29.3333" width="1.83333" height="1.83333" fill="white"/>
</g>
</svg>
