<svg width="28" height="28" viewBox="0 0 28 28" fill="none" xmlns="http://www.w3.org/2000/svg">
<g id="Frame 427321354" clip-path="url(#clip0_134_6229)">
<path id="Vector 929" d="M5.83333 9.33342L8.40729 5.21508C8.62049 4.87397 8.99437 4.66675 9.39662 4.66675H18.6034C19.0056 4.66675 19.3795 4.87397 19.5927 5.21508L22.1667 9.33342H23.9167C24.2388 9.33342 24.5 9.59458 24.5 9.91675C24.5 10.2389 24.2388 10.5001 23.9167 10.5001H22.75L24.5 13.4167V22.7501C24.5 23.0722 24.2388 23.3334 23.9167 23.3334H19.25C18.9278 23.3334 18.6667 23.0722 18.6667 22.7501V21.5834C18.6667 21.2612 18.4055 21.0001 18.0833 21.0001H9.91667C9.5945 21.0001 9.33333 21.2612 9.33333 21.5834V22.7501C9.33333 23.0722 9.07217 23.3334 8.75 23.3334H4.08333C3.76117 23.3334 3.5 23.0722 3.5 22.7501V13.4167L5.25 10.5001H4.08333C3.76117 10.5001 3.5 10.2389 3.5 9.91675C3.5 9.59458 3.76117 9.33342 4.08333 9.33342H5.83333Z" fill="#01FFFF"/>
</g>
<defs>
<clipPath id="clip0_134_6229">
<rect width="28" height="28" fill="white" transform="matrix(-1 0 0 1 28 0)"/>
</clipPath>
</defs>
</svg>
