<svg width="16" height="16" viewBox="0 0 16 16" fill="none" xmlns="http://www.w3.org/2000/svg">
<g id="Frame 427321370">
<path id="Vector" d="M12.0586 11.6019C12.0586 10.1199 10.8655 8.46677 9.45766 7.79696C10.1414 7.284 10.5906 6.44322 10.5906 5.48842C10.5906 3.92795 9.40409 2.66675 7.936 2.66675C6.46792 2.66675 5.28137 3.92795 5.28137 5.48127C5.28137 6.44323 5.73719 7.29819 6.42771 7.8041C5.04005 8.49532 3.88035 10.2909 3.88035 11.5592C3.88035 13.9177 12.0586 13.9177 12.0586 11.6019ZM12.6419 7.5334C13.1781 7.13437 13.52 6.47883 13.52 5.73782C13.52 4.52649 12.595 3.54316 11.4553 3.54316C11.1671 3.54316 10.8855 3.6073 10.6375 3.72132C10.9995 4.20582 11.2207 4.81862 11.2207 5.4813C11.2207 6.43608 10.7716 7.28401 10.0878 7.78992C11.4956 8.45966 12.6888 10.1199 12.6888 11.5949C12.6888 11.6518 12.6821 11.7088 12.6754 11.7587C13.7815 11.5877 14.6663 11.1673 14.6663 10.4976C14.6663 9.3503 13.7412 8.06063 12.6419 7.5334ZM3.24348 11.5592C3.24348 10.2909 4.40324 8.4953 5.79084 7.80412C5.1004 7.29115 4.64458 6.44323 4.64458 5.4813C4.64458 4.80436 4.87249 4.17736 5.24788 3.69277C5.01326 3.59303 4.7585 3.54316 4.49038 3.54316C3.35077 3.54316 2.4257 4.52649 2.4257 5.73782C2.4257 6.48597 2.78097 7.14857 3.31726 7.5476C2.238 8.08203 1.33301 9.48573 1.33301 10.469C1.33301 11.1388 2.18436 11.5663 3.25691 11.7445C3.25021 11.6874 3.24348 11.6233 3.24348 11.5592Z" fill="#01FFFF"/>
</g>
</svg>
