<svg width="24" height="24" viewBox="0 0 24 24" fill="none" xmlns="http://www.w3.org/2000/svg">
<g id="Frame 427321407">
<path id="Vector" d="M16.1311 5.2651C18.1432 5.2651 19.782 6.96422 19.782 9.05733C19.782 9.74683 19.6042 10.3963 19.2931 10.9534L20.0873 12C20.6622 11.172 21 10.1531 21 9.05733C21 6.26856 18.8159 4 16.1311 4C14.3915 4 12.8624 4.95114 12 6.38245L12.8179 7.46287C13.1105 6.80619 13.578 6.25025 14.1651 5.86079C14.7522 5.47132 15.4344 5.26462 16.1311 5.2651V5.2651Z" fill="#8A9CA8"/>
<path id="Vector_2" d="M19.602 13.0921L18.7607 11.9684L17.1378 9.79685C16.9024 9.37048 16.3154 9.37048 16.08 9.79685L14.5795 11.7998L11.9019 8.22027L11.0355 7.06014L10.6148 6.49826C10.2507 5.83391 9.34037 5.83391 8.97938 6.49826L3.12816 14.3217C2.76403 14.986 3.21919 15.8156 3.94745 15.8156H20.3868C20.8576 15.8156 21.1527 15.2802 20.9173 14.8505L19.602 13.0921ZM16.8082 17.3988C16.8082 17.0848 16.5665 16.8336 16.2714 16.8336H4.55643C4.41407 16.8336 4.27754 16.8932 4.17687 16.9992C4.07621 17.1052 4.01965 17.2489 4.01965 17.3988C4.01965 17.5487 4.07621 17.6925 4.17687 17.7985C4.27754 17.9044 4.41407 17.964 4.55643 17.964H16.2683C16.5665 17.964 16.8082 17.7128 16.8082 17.3988V17.3988ZM18.4186 18.8696H5.95332C5.81095 18.8696 5.67442 18.9292 5.57376 19.0352C5.47309 19.1412 5.41654 19.2849 5.41654 19.4348C5.41654 19.5847 5.47309 19.7285 5.57376 19.8345C5.67442 19.9405 5.81095 20 5.95332 20H18.4186C18.5609 20 18.6975 19.9405 18.7981 19.8345C18.8988 19.7285 18.9553 19.5847 18.9553 19.4348C18.9553 19.2849 18.8988 19.1412 18.7981 19.0352C18.6975 18.9292 18.5609 18.8696 18.4186 18.8696V18.8696ZM19.4921 16.8336H17.9885C17.8461 16.8336 17.7096 16.8932 17.6089 16.9992C17.5083 17.1052 17.4517 17.2489 17.4517 17.3988C17.4517 17.5487 17.5083 17.6925 17.6089 17.7985C17.7096 17.9044 17.8461 17.964 17.9885 17.964H19.4921C19.6345 17.964 19.771 17.9044 19.8717 17.7985C19.9723 17.6925 20.0289 17.5487 20.0289 17.3988C20.0289 17.2489 19.9723 17.1052 19.8717 16.9992C19.771 16.8932 19.6345 16.8336 19.4921 16.8336V16.8336Z" fill="#8A9CA8"/>
</g>
</svg>
