<svg width="24" height="24" viewBox="0 0 24 24" fill="none" xmlns="http://www.w3.org/2000/svg">
<g id="Frame 427321352">
<circle id="Ellipse 2226" cx="10.5" cy="8.5" r="4.5" fill="#8A9CA8"/>
<path id="Subtract" fill-rule="evenodd" clip-rule="evenodd" d="M20.9857 19.6835C20.9953 19.7976 21 19.9034 21 20H20.743C20.8276 19.8975 20.9085 19.792 20.9857 19.6835ZM12.2573 20C11.4719 19.0491 11.0001 17.8296 11.0001 16.5C11.0001 14.6808 11.8833 13.0679 13.2443 12.0667C12.8483 12.023 12.4338 12 12.0001 12C5.00011 12 3.00023 18 3.00011 20H12.0001H12.2573Z" fill="#8A9CA8"/>
<path id="Subtract_2" fill-rule="evenodd" clip-rule="evenodd" d="M21 16.5C21 18.9853 18.9853 21 16.5 21C14.0147 21 12 18.9853 12 16.5C12 14.0147 14.0147 12 16.5 12C18.9853 12 21 14.0147 21 16.5ZM15.3564 15.7785C15.3564 15.9751 15.3942 16.1697 15.4676 16.3513C15.541 16.5329 15.6485 16.698 15.7841 16.837C15.9197 16.976 16.0806 17.0862 16.2578 17.1615C16.4349 17.2367 16.6248 17.2754 16.8166 17.2754C17.0083 17.2754 17.1982 17.2367 17.3753 17.1615C17.5525 17.0862 17.7134 16.976 17.849 16.837C17.9846 16.698 18.0921 16.5329 18.1655 16.3513C18.2389 16.1697 18.2767 15.9751 18.2767 15.7785C18.2767 15.5819 18.2389 15.3872 18.1655 15.2056C18.0921 15.024 17.9846 14.859 17.849 14.72C17.7134 14.581 17.5525 14.4707 17.3753 14.3955C17.1982 14.3203 17.0083 14.2815 16.8166 14.2815C16.6248 14.2815 16.4349 14.3203 16.2578 14.3955C16.0806 14.4707 15.9197 14.581 15.7841 14.72C15.6485 14.859 15.541 15.024 15.4676 15.2056C15.3942 15.3872 15.3564 15.5819 15.3564 15.7785ZM14 17.3089C14.0011 16.7592 14.3696 16.2975 14.8675 16.1693C14.9832 16.1392 15.1027 16.2078 15.1348 16.3258C15.2731 16.8233 15.6366 17.2238 16.1047 17.4042C16.2164 17.4473 16.2734 17.5738 16.2353 17.6895C16.0809 18.1557 15.6493 18.4904 15.1414 18.4876C14.5179 18.4836 13.9989 17.9481 14 17.3089ZM14.3569 14.5765C14.3569 14.6391 14.3689 14.701 14.3922 14.7588C14.4156 14.8166 14.4498 14.8692 14.493 14.9134C14.5361 14.9577 14.5874 14.9928 14.6438 15.0167C14.7001 15.0406 14.7606 15.053 14.8216 15.053C14.8826 15.053 14.9431 15.0406 14.9995 15.0167C15.0558 14.9928 15.1071 14.9577 15.1502 14.9134C15.1934 14.8692 15.2276 14.8166 15.251 14.7588C15.2743 14.701 15.2864 14.6391 15.2864 14.5765C15.2864 14.5139 15.2743 14.452 15.251 14.3941C15.2276 14.3363 15.1934 14.2838 15.1502 14.2396C15.1071 14.1953 15.0558 14.1602 14.9995 14.1363C14.9431 14.1123 14.8826 14.1 14.8216 14.1C14.7606 14.1 14.7001 14.1123 14.6438 14.1363C14.5874 14.1602 14.5361 14.1953 14.493 14.2396C14.4498 14.2838 14.4156 14.3363 14.3922 14.3941C14.3689 14.452 14.3569 14.5139 14.3569 14.5765ZM17.3931 18.0837C17.3898 17.6231 17.7544 17.2487 18.2036 17.2527C18.6413 17.2567 18.9959 17.6203 18.9998 18.069C19.0031 18.5296 18.6385 18.9039 18.1893 18.9C17.7516 18.8966 17.397 18.5324 17.3931 18.0837Z" fill="#8A9CA8"/>
</g>
</svg>
