<svg width="16" height="16" viewBox="0 0 16 16" fill="none" xmlns="http://www.w3.org/2000/svg">
<g id="Frame 427321349">
<path id="Vector 930" d="M2.18362 5.35372L7.30943 2.25125C7.73386 1.99436 8.26582 1.99436 8.69024 2.25125L13.8161 5.35372C14.0406 5.48962 14.0273 5.81966 13.7925 5.93703L8.59612 8.53523C8.22075 8.72292 7.77892 8.72292 7.40355 8.53523L2.20715 5.93703C1.9724 5.81966 1.95909 5.48962 2.18362 5.35372Z" fill="white"/>
<path id="Union" d="M14 8L8.54152 10.426C8.19676 10.5792 7.80324 10.5792 7.45848 10.426L2 8V8.23342C2 8.49688 2.15516 8.73562 2.39591 8.84263L7.45848 11.0927C7.80324 11.2459 8.19676 11.2459 8.54152 11.0927L13.6041 8.84263C13.8448 8.73562 14 8.49688 14 8.23342V8Z" fill="white"/>
<path id="Union_2" d="M14 10.6666L8.54152 13.0926C8.19676 13.2458 7.80324 13.2458 7.45848 13.0926L2 10.6666V10.9C2 11.1635 2.15516 11.4023 2.39591 11.5093L7.45848 13.7593C7.80324 13.9125 8.19676 13.9125 8.54152 13.7593L13.6041 11.5093C13.8448 11.4023 14 11.1635 14 10.9V10.6666Z" fill="white"/>
</g>
</svg>
