<?xml version="1.0" standalone="no"?><!DOCTYPE svg PUBLIC "-//W3C//DTD SVG 1.1//EN" "http://www.w3.org/Graphics/SVG/1.1/DTD/svg11.dtd"><svg class="icon" width="200px" height="200.00px" viewBox="0 0 1024 1024" version="1.1" xmlns="http://www.w3.org/2000/svg"><path fill="#fff" d="M448 938.666667a21.333333 21.333333 0 0 1-15.093333-6.246667L225.833333 725.333333H53.333333a53.393333 53.393333 0 0 1-53.333333-53.333333V352a53.393333 53.393333 0 0 1 53.333333-53.333333h172.5l207.08-207.086667A21.333333 21.333333 0 0 1 469.333333 106.666667v810.666666a21.333333 21.333333 0 0 1-21.333333 21.333334zM53.333333 341.333333a10.666667 10.666667 0 0 0-10.666666 10.666667v320a10.666667 10.666667 0 0 0 10.666666 10.666667h181.333334a21.333333 21.333333 0 0 1 15.086666 6.246666L426.666667 865.833333V158.166667L249.753333 335.086667A21.333333 21.333333 0 0 1 234.666667 341.333333z m664.266667 437.246667a21.333333 21.333333 0 0 1-13.733333-37.666667c6.666667-5.586667 13.146667-11.553333 19.333333-17.726666C779.6 666.78 810.666667 591.78 810.666667 512s-31.066667-154.78-87.48-211.186667c-6.173333-6.173333-12.666667-12.14-19.333334-17.726666a21.333333 21.333333 0 1 1 27.446667-32.666667 346.585333 346.585333 0 0 1 22.046667 20.213333 341.066667 341.066667 0 0 1 0 482.72 346.585333 346.585333 0 0 1-22.046667 20.213334 21.24 21.24 0 0 1-13.7 5.013333zM629.333333 625.72a21.333333 21.333333 0 0 1-16.733333-34.546667 127.366667 127.366667 0 0 0 0-158.346666 21.333333 21.333333 0 0 1 33.486667-26.433334 170.733333 170.733333 0 0 1 0 211.213334A21.333333 21.333333 0 0 1 629.333333 625.72z"  /></svg>