<?xml version="1.0" standalone="no"?><!DOCTYPE svg PUBLIC "-//W3C//DTD SVG 1.1//EN" "http://www.w3.org/Graphics/SVG/1.1/DTD/svg11.dtd"><svg class="icon" width="200px" height="200.00px" viewBox="0 0 1024 1024" version="1.1" xmlns="http://www.w3.org/2000/svg"><path fill="#fff" d="M448 938.666667a21.333333 21.333333 0 0 1-15.093333-6.246667L225.833333 725.333333H53.333333a53.393333 53.393333 0 0 1-53.333333-53.333333V352a53.393333 53.393333 0 0 1 53.333333-53.333333h172.5l207.08-207.086667A21.333333 21.333333 0 0 1 469.333333 106.666667v810.666666a21.333333 21.333333 0 0 1-21.333333 21.333334zM53.333333 341.333333a10.666667 10.666667 0 0 0-10.666666 10.666667v320a10.666667 10.666667 0 0 0 10.666666 10.666667h181.333334a21.333333 21.333333 0 0 1 15.086666 6.246666L426.666667 865.833333V158.166667L249.753333 335.086667A21.333333 21.333333 0 0 1 234.666667 341.333333z m964.42 377.753334a21.333333 21.333333 0 0 0 0-30.173334L840.833333 512l176.92-176.913333a21.333333 21.333333 0 1 0-30.173333-30.173334L810.666667 481.833333 633.753333 304.913333a21.333333 21.333333 0 0 0-30.173333 30.173334L780.5 512l-176.92 176.913333a21.333333 21.333333 0 0 0 30.173333 30.173334L810.666667 542.166667l176.913333 176.92a21.333333 21.333333 0 0 0 30.173333 0z"  /></svg>