<?xml version="1.0" standalone="no"?><!DOCTYPE svg PUBLIC "-//W3C//DTD SVG 1.1//EN" "http://www.w3.org/Graphics/SVG/1.1/DTD/svg11.dtd"><svg class="icon" width="200px" height="179.65px" viewBox="0 0 1140 1024" version="1.1" xmlns="http://www.w3.org/2000/svg"><path fill="#ffffff" d="M562.58760565 42.66666666C310.76547065 42.66666666 106.66666665 247.95993666 106.66666665 501.26409366S310.76547065 959.86152166 562.58760565 959.86152166s455.909879-205.30433 455.90988-458.597428S814.39868065 42.66666666 562.58760565 42.66666666z m277.005455 737.228682a389.65021 389.65021 0 0 1-124.578354 84.464212 391.032694 391.032694 0 0 1-304.865262 0.110599 395.146964 395.146964 0 0 1-124.688952-641.848381 392.957111 392.957111 0 0 1 554.165747 557.27357zM424.54939365 329.28314666a31.940899 31.940899 0 0 0-22.68379 9.445127 32.294815 32.294815 0 0 0-9.378768 22.816508v279.438625a32.073617 32.073617 0 1 0 64.147235 0V361.54478166a32.305874 32.305874 0 0 0-9.389828-22.816508 31.907719 31.907719 0 0 0-22.68379-9.445127z m276.065365 0a31.940899 31.940899 0 0 0-22.683789 9.445127 32.350114 32.350114 0 0 0-9.389828 22.816508v279.438625a32.073617 32.073617 0 1 0 64.147234 0V361.54478166a32.294815 32.294815 0 0 0-9.378768-22.816508 31.940899 31.940899 0 0 0-22.683789-9.445127z m0 0" /></svg>